<?xml version="1.0" standalone="no"?>
<!DOCTYPE svg PUBLIC "-//W3C//DTD SVG 20010904//EN"
 "http://www.w3.org/TR/2001/REC-SVG-20010904/DTD/svg10.dtd">
<svg version="1.0" xmlns="http://www.w3.org/2000/svg"
 width="1024.000000pt" height="486.000000pt" viewBox="0 0 1024.000000 486.000000"
 preserveAspectRatio="xMidYMid meet">

<g transform="translate(0.000000,486.000000) scale(0.100000,-0.100000)"
fill="#000000" stroke="none">
<path d="M20 4851 c-19 -7 -27 -86 -11 -96 11 -6 15 6 11 40 -1 16 1 18 11 8
18 -18 30 -16 23 2 -9 21 2 19 27 -7 17 -18 21 -19 16 -5 -4 9 -4 24 0 32 5
13 8 13 20 -5 17 -23 43 -27 43 -5 0 8 5 15 11 15 7 0 9 -9 6 -21 -4 -16 -3
-18 8 -9 8 6 12 17 9 24 -3 8 2 16 10 19 9 4 16 2 16 -3 0 -6 7 -10 15 -10 8
0 15 4 15 9 0 5 8 11 18 13 9 2 -39 5 -108 5 -69 0 -132 -2 -140 -6z"/>
<path d="M10160 4824 c8 -10 15 -20 16 -22 1 -2 5 1 8 7 4 5 -4 15 -16 22 -22
12 -22 11 -8 -7z"/>
<path d="M2975 4630 c3 -5 8 -10 11 -10 2 0 4 5 4 10 0 6 -5 10 -11 10 -5 0
-7 -4 -4 -10z"/>
<path d="M3065 4590 c-3 -5 1 -10 9 -10 8 0 18 5 21 10 3 6 -1 10 -9 10 -8 0
-18 -4 -21 -10z"/>
<path d="M2907 4533 c-4 -3 -7 -11 -7 -17 0 -6 5 -5 12 2 6 6 9 14 7 17 -3 3
-9 2 -12 -2z"/>
<path d="M3045 4490 c-3 -5 -1 -10 4 -10 6 0 11 5 11 10 0 6 -2 10 -4 10 -3 0
-8 -4 -11 -10z"/>
<path d="M75 4480 c3 -5 8 -10 11 -10 2 0 4 5 4 10 0 6 -5 10 -11 10 -5 0 -7
-4 -4 -10z"/>
<path d="M2946 4475 c4 -8 10 -12 15 -9 11 6 2 24 -11 24 -5 0 -7 -7 -4 -15z"/>
<path d="M2293 4469 c-36 -13 -51 -45 -43 -92 4 -23 6 -66 5 -95 -3 -45 0 -54
18 -64 12 -6 27 -17 35 -24 7 -7 19 -11 26 -8 7 3 16 -2 19 -10 5 -12 0 -16
-17 -16 -41 0 -66 -42 -66 -112 0 -35 -2 -75 -4 -90 -3 -20 4 -36 28 -61 27
-29 37 -33 70 -31 22 2 44 11 52 21 13 17 15 17 29 -1 8 -11 25 -21 37 -22 28
-3 88 23 88 37 0 6 5 7 10 4 6 -3 11 -3 12 2 10 55 12 154 4 189 -4 16 -14 24
-27 24 -13 0 -23 8 -26 21 -3 11 -11 18 -18 15 -6 -2 -18 0 -25 4 -8 5 -27 2
-46 -7 -29 -15 -34 -15 -48 0 -9 8 -16 20 -16 26 0 16 20 24 33 12 19 -15 109
-8 137 12 24 16 25 23 27 123 l1 105 -39 26 c-29 19 -45 24 -66 18 -31 -8 -69
-9 -128 -2 -22 2 -50 1 -62 -4z m82 -94 c1 -11 4 -38 6 -59 3 -29 -1 -42 -14
-50 -28 -17 -47 17 -47 82 0 52 1 53 27 50 18 -2 27 -9 28 -23z m131 3 c21
-68 0 -140 -35 -118 -20 12 -28 119 -10 131 23 14 37 10 45 -13z m-115 -370
c-3 -64 -15 -82 -43 -67 -18 10 -20 17 -14 67 8 68 22 90 45 68 10 -11 14 -31
12 -68z m140 45 c16 -42 0 -105 -28 -109 -30 -5 -57 44 -46 83 4 16 6 34 5 41
-2 7 9 12 28 12 24 0 33 -6 41 -27z"/>
<path d="M2980 4440 c0 -5 5 -10 10 -10 6 0 10 5 10 10 0 6 -4 10 -10 10 -5 0
-10 -4 -10 -10z"/>
<path d="M3095 4440 c3 -5 11 -10 16 -10 6 0 7 5 4 10 -3 6 -11 10 -16 10 -6
0 -7 -4 -4 -10z"/>
<path d="M2980 4361 c0 -6 4 -13 10 -16 6 -3 7 1 4 9 -7 18 -14 21 -14 7z"/>
<path d="M3108 4343 c7 -3 16 -2 19 1 4 3 -2 6 -13 5 -11 0 -14 -3 -6 -6z"/>
<path d="M2910 4329 c0 -5 5 -7 10 -4 6 3 10 8 10 11 0 2 -4 4 -10 4 -5 0 -10
-5 -10 -11z"/>
<path d="M3460 4322 c-39 -14 -49 -42 -54 -142 -3 -61 0 -76 15 -91 11 -11 19
-24 19 -30 0 -6 12 -8 30 -5 17 3 43 9 59 12 20 3 33 14 41 35 11 26 10 32 -6
44 -27 20 -31 19 -43 -15 -20 -59 -50 -20 -51 67 0 52 3 64 20 73 11 6 20 7
20 3 0 -5 9 -14 19 -20 25 -16 55 4 45 30 -11 30 -76 53 -114 39z"/>
<path d="M3614 4308 c-3 -10 -5 -48 -5 -85 0 -38 0 -83 0 -102 -1 -57 4 -61
76 -61 50 0 67 4 72 15 8 21 2 25 -43 29 -27 3 -40 9 -45 24 -10 25 4 37 51
46 29 5 35 11 37 32 0 16 -3 22 -8 17 -6 -6 -26 -7 -47 -3 -30 5 -36 10 -34
25 2 11 5 21 7 23 2 3 34 7 73 11 13 1 17 41 5 42 -95 6 -134 3 -139 -13z"/>
<path d="M4683 4318 l-43 -9 0 -113 c0 -139 8 -151 90 -140 46 6 54 10 65 38
7 17 13 51 14 74 0 24 3 47 5 50 2 4 -6 27 -18 51 -24 51 -49 62 -113 49z m58
-69 c13 -47 10 -126 -6 -139 -9 -7 -18 -10 -21 -7 -8 7 -13 158 -7 170 8 14
27 1 34 -24z"/>
<path d="M4890 4320 c-38 -9 -59 -62 -58 -148 1 -91 24 -122 88 -122 22 0 40
5 40 10 0 6 6 10 14 10 20 0 27 14 31 59 1 21 5 43 9 49 3 6 2 13 -3 17 -6 3
-7 12 -4 21 4 11 -23 94 -31 94 -1 0 -15 4 -31 8 -17 5 -41 6 -55 2z m48 -69
c12 -34 2 -151 -14 -151 -23 0 -38 42 -35 100 2 30 5 58 7 62 9 15 35 8 42
-11z"/>
<path d="M2760 4310 c0 -5 5 -10 10 -10 6 0 10 5 10 10 0 6 -4 10 -10 10 -5 0
-10 -4 -10 -10z"/>
<path d="M2996 4311 c-3 -5 1 -11 9 -15 15 -6 29 7 18 18 -9 9 -21 8 -27 -3z"/>
<path d="M3798 4283 c-4 -110 4 -209 19 -223 10 -10 17 -11 20 -4 2 7 22 9 53
6 39 -3 50 -1 50 10 0 25 -21 37 -46 28 -20 -8 -24 -5 -33 23 -6 18 -10 58
-10 89 2 86 -49 154 -53 71z"/>
<path d="M3976 4311 c-3 -5 -6 -40 -6 -78 0 -37 -2 -88 -3 -111 -1 -24 1 -49
4 -54 9 -14 128 -13 141 0 8 8 18 6 33 -4 16 -10 25 -12 30 -4 3 6 11 8 16 5
5 -4 9 3 9 13 0 39 53 53 58 15 6 -41 69 -43 64 -2 -14 112 -31 179 -55 217
-5 6 -21 12 -37 12 -25 0 -32 -6 -45 -37 -9 -20 -13 -43 -11 -50 3 -7 1 -13
-4 -13 -5 0 -12 -21 -15 -47 -11 -79 -10 -78 -61 -76 -60 2 -72 19 -63 86 6
52 3 112 -7 128 -7 12 -41 11 -48 0z"/>
<path d="M4367 4314 c-8 -15 -19 -202 -13 -222 4 -11 16 -22 26 -25 27 -7 36
8 42 71 4 40 33 22 35 -22 1 -37 14 -56 40 -56 17 0 28 49 16 69 -6 9 -9 48
-7 86 2 39 0 76 -5 84 -11 16 -125 29 -134 15z m80 -65 c2 -8 -2 -21 -7 -29
-8 -12 -11 -13 -19 -1 -11 17 -2 53 13 48 6 -2 12 -10 13 -18z"/>
<path d="M5073 4310 c-28 -11 -36 -40 -35 -121 2 -108 23 -138 96 -141 57 -2
71 21 71 121 1 47 -1 96 -3 107 -7 37 -76 55 -129 34z m70 -62 c3 -13 4 -50 2
-82 -4 -58 -17 -87 -32 -72 -9 8 -14 156 -6 169 9 15 31 6 36 -15z"/>
<path d="M5248 4314 c-5 -4 -8 -58 -8 -120 0 -89 3 -116 16 -128 18 -18 30
-20 39 -6 8 13 17 51 17 72 -1 34 27 6 35 -35 8 -41 25 -53 49 -35 18 13 9
218 -10 237 -17 16 -126 28 -138 15z m90 -77 c3 -28 -6 -35 -25 -16 -13 13 -5
51 11 46 6 -2 12 -16 14 -30z"/>
<path d="M5534 4302 c-19 -19 -13 -230 7 -243 8 -5 17 -9 21 -9 13 0 27 36 22
57 -6 23 27 53 59 53 10 0 26 13 35 30 24 42 30 37 25 -21 -4 -51 11 -119 27
-119 20 0 40 34 40 68 l1 37 18 -22 c11 -13 17 -31 14 -41 -7 -28 23 -55 48
-42 15 9 19 21 18 64 -1 30 -5 60 -9 67 -5 7 -4 23 1 36 21 55 -18 95 -92 96
-47 0 -59 -8 -59 -44 0 -16 -4 -29 -10 -29 -5 0 -10 8 -10 19 0 21 -20 41 -47
46 -10 2 -20 4 -23 5 -20 8 -76 3 -86 -8z m80 -67 c-4 -8 -10 -15 -15 -15 -5
0 -9 7 -9 15 0 8 7 15 15 15 9 0 12 -6 9 -15z m186 5 c0 -5 -4 -10 -9 -10 -6
0 -13 5 -16 10 -3 6 1 10 9 10 9 0 16 -4 16 -10z"/>
<path d="M5938 4305 c-8 -5 -19 -23 -25 -40 -16 -40 -24 -133 -12 -141 5 -3 9
-14 9 -25 0 -24 22 -49 44 -49 9 0 16 -4 16 -10 0 -5 8 -8 18 -6 44 10 61 20
73 43 15 27 18 138 6 185 -12 46 -91 73 -129 43z m70 -56 c15 -23 6 -135 -11
-146 -25 -15 -38 56 -28 155 2 19 25 14 39 -9z"/>
<path d="M6429 4293 c-6 -15 -10 -62 -10 -104 0 -52 -4 -81 -13 -88 -22 -19
-34 9 -31 74 1 33 -2 77 -7 98 -7 32 -13 38 -31 35 -21 -3 -22 -8 -23 -117 -1
-99 2 -115 18 -131 25 -23 73 -30 103 -14 13 7 26 10 28 7 8 -8 25 89 23 135
0 23 3 42 9 42 5 0 4 5 -3 12 -7 7 -12 21 -12 33 0 11 -9 26 -20 33 -18 11
-21 9 -31 -15z"/>
<path d="M6576 4305 c-11 -8 -28 -15 -38 -15 -16 0 -18 -9 -17 -77 1 -51 8
-93 19 -120 19 -44 54 -72 66 -52 3 6 14 9 24 6 42 -11 90 54 62 83 -23 22
-35 19 -49 -12 -13 -31 -25 -35 -42 -14 -10 11 -10 20 -1 36 7 13 8 26 3 31
-5 5 -7 27 -5 49 3 32 8 40 24 40 11 0 22 -8 25 -19 7 -28 43 -15 43 15 0 53
-70 82 -114 49z"/>
<path d="M7466 4299 c-52 -41 -38 -104 29 -136 35 -17 52 -44 40 -63 -9 -15
-23 -12 -42 10 -19 22 -39 25 -62 11 -12 -8 -10 -15 12 -44 14 -19 37 -37 50
-39 54 -10 107 33 107 88 0 26 -7 36 -32 53 -40 24 -68 56 -68 76 0 22 28 18
40 -5 11 -20 40 -28 40 -11 0 5 2 15 5 23 8 23 -11 40 -54 48 -33 6 -46 4 -65
-11z"/>
<path d="M2930 4302 c0 -5 7 -9 15 -9 8 0 12 4 9 9 -3 4 -9 8 -15 8 -5 0 -9
-4 -9 -8z"/>
<path d="M3080 4303 c0 -5 8 -17 17 -28 14 -18 15 -18 9 -2 -3 10 -6 23 -6 28
0 5 -4 9 -10 9 -5 0 -10 -3 -10 -7z"/>
<path d="M6116 4293 c-9 -32 -10 -88 -2 -101 4 -7 5 -30 1 -52 -8 -48 3 -106
17 -92 6 6 21 7 41 1 20 -6 35 -5 44 2 9 9 14 7 19 -5 12 -30 43 52 45 118 3
111 -15 136 -101 142 -49 4 -59 1 -64 -13z m90 -60 c16 -106 17 -113 1 -113
-8 0 -18 -8 -22 -17 -6 -14 -10 -8 -16 22 -8 37 -3 120 8 138 7 12 26 -9 29
-30z"/>
<path d="M6732 4296 c-3 -5 4 -17 16 -26 18 -15 21 -30 24 -111 3 -90 9 -109
35 -109 11 0 28 104 24 151 -3 30 25 63 45 55 18 -7 19 28 1 42 -16 13 -136
11 -145 -2z"/>
<path d="M6927 4292 c-11 -13 -14 -42 -13 -117 2 -108 7 -125 37 -125 17 0 19
7 18 69 -1 38 2 74 6 81 11 17 -4 98 -20 103 -7 3 -20 -2 -28 -11z"/>
<path d="M7043 4299 c-34 -12 -46 -74 -33 -166 6 -42 11 -77 13 -78 1 0 14 -7
28 -14 18 -9 32 -10 45 -3 11 5 24 7 30 5 18 -6 43 41 52 99 8 56 -3 128 -25
149 -14 14 -81 19 -110 8z m73 -128 c-1 -74 -2 -76 -26 -76 -23 0 -25 3 -22
40 3 49 9 117 11 128 0 4 9 2 19 -4 16 -10 19 -24 18 -88z"/>
<path d="M7240 4299 c-14 -4 -21 -7 -16 -8 5 -1 4 -7 -2 -14 -6 -6 -9 -38 -7
-70 2 -31 -1 -57 -5 -57 -6 0 -5 -11 0 -25 5 -14 9 -29 9 -33 -3 -20 3 -30 25
-40 22 -10 23 -9 22 34 0 24 5 49 12 56 9 9 12 8 12 -5 0 -9 4 -17 8 -17 5 0
14 -16 22 -35 29 -75 67 -43 67 56 0 37 3 71 6 76 10 16 -13 83 -28 83 -20 0
-27 -17 -27 -63 1 -22 -2 -45 -4 -49 -6 -9 -54 79 -54 99 0 17 -12 21 -40 12z"/>
<path d="M7760 4293 c-14 -9 -26 -17 -28 -19 -2 -1 4 -18 12 -38 13 -32 13
-38 1 -42 -21 -8 -44 -86 -27 -92 7 -2 12 -12 12 -22 0 -24 76 -56 96 -39 8 6
25 9 39 7 18 -4 25 -1 26 11 1 23 7 63 12 86 2 11 0 26 -6 33 -8 10 -13 9 -27
-3 -16 -14 -18 -14 -24 1 -4 10 -3 20 1 23 5 3 13 18 20 32 11 26 3 55 -21 71
-19 13 -61 9 -86 -9z m60 -37 c0 -3 -4 -8 -10 -11 -5 -3 -10 -1 -10 4 0 6 5
11 10 11 6 0 10 -2 10 -4z m-10 -151 c0 -15 -32 -16 -42 -1 -4 6 -2 16 4 23
12 15 38 0 38 -22z"/>
<path d="M8254 4303 c-50 -6 -65 -32 -66 -105 -1 -109 28 -161 90 -163 12 -1
22 3 22 7 0 4 5 7 11 6 31 -8 51 170 24 222 -12 22 -41 46 -48 38 -1 0 -16 -3
-33 -5z m31 -50 c18 -45 14 -180 -5 -168 -5 3 -10 -1 -13 -7 -3 -8 -10 -1 -16
15 -7 19 -8 34 -1 46 6 12 5 22 -2 29 -9 9 -9 12 1 12 10 0 11 3 2 14 -6 7 -9
21 -6 30 3 9 7 23 10 31 6 20 21 19 30 -2z"/>
<path d="M8933 4299 c-16 -6 -23 -17 -24 -36 -2 -49 2 -57 47 -99 44 -41 57
-77 30 -87 -9 -4 -16 3 -20 18 -7 26 -42 43 -58 27 -13 -13 1 -62 18 -62 8 0
14 -4 14 -10 0 -5 7 -7 15 -4 8 4 15 1 15 -6 0 -6 5 -8 13 -3 6 4 18 8 25 9
31 5 41 15 51 50 8 30 7 41 -7 60 -9 13 -27 27 -39 30 -33 9 -57 39 -46 59 8
14 12 14 34 -3 30 -23 49 -18 49 13 0 36 -70 62 -117 44z"/>
<path d="M9150 4297 c-37 -17 -40 -24 -40 -124 0 -109 13 -131 77 -131 46 0
73 21 73 60 0 38 -28 35 -43 -5 -5 -12 -15 -17 -29 -15 -20 3 -24 11 -28 58
-3 30 -4 66 -2 81 5 36 32 46 54 20 21 -27 38 -27 38 -1 0 11 1 23 1 27 2 9
-51 42 -66 42 -5 0 -21 -6 -35 -12z"/>
<path d="M8091 4243 c-3 -117 -6 -146 -18 -150 -8 -3 -13 4 -13 14 0 14 -7 19
-25 19 -21 0 -25 -5 -25 -32 0 -39 14 -51 60 -52 68 -2 79 21 83 167 2 84 -1
91 -43 91 -15 0 -18 -9 -19 -57z"/>
<path d="M8402 4288 c-5 -8 -9 -59 -7 -118 3 -126 1 -121 20 -114 8 4 15 1 15
-7 0 -29 10 2 16 47 3 27 8 51 10 53 9 9 54 12 55 4 1 -4 3 -26 5 -47 5 -61
12 -73 28 -50 19 27 29 219 12 233 -18 15 -40 -12 -41 -47 0 -23 -4 -27 -30
-27 -27 0 -30 3 -30 30 -1 50 -28 73 -53 43z"/>
<path d="M8610 4276 c-12 -32 -5 -178 10 -206 18 -33 34 -9 31 45 -1 25 2 45
8 45 5 0 22 -25 36 -55 15 -30 36 -57 46 -60 26 -9 51 12 41 34 -5 9 -7 60 -5
114 2 81 0 99 -13 104 -23 9 -37 -11 -37 -56 0 -23 -6 -46 -13 -52 -11 -9 -14
-8 -14 2 0 8 -10 35 -22 62 -25 53 -53 62 -68 23z"/>
<path d="M9310 4280 c-6 -11 -10 -47 -9 -79 1 -32 -1 -63 -5 -69 -4 -7 -2 -12
4 -12 6 0 9 -4 6 -9 -9 -14 15 -72 28 -68 6 2 16 26 21 53 10 43 14 49 38 52
29 4 31 -1 29 -63 0 -27 11 -44 30 -45 18 0 31 211 14 239 -14 22 -36 12 -36
-17 0 -39 -21 -65 -50 -60 -21 3 -24 8 -23 43 1 53 -26 74 -47 35z"/>
<path d="M9540 4290 c-6 -4 -12 -54 -15 -113 -5 -96 -4 -108 14 -126 16 -16
26 -18 57 -11 21 5 42 8 47 7 5 -1 12 4 14 11 3 7 -3 12 -14 12 -11 0 -24 5
-31 12 -9 9 -12 9 -12 0 0 -6 -7 -9 -16 -5 -10 4 -14 16 -12 42 3 34 5 36 34
33 18 -2 36 3 43 12 13 16 7 19 -54 28 -15 2 -20 11 -20 33 0 27 3 30 29 28
16 -1 37 4 48 11 18 13 18 14 1 21 -23 9 -101 13 -113 5z"/>
<path d="M9714 4276 c-5 -11 -9 -65 -9 -118 0 -78 3 -101 17 -114 16 -16 18
-16 28 10 5 15 10 38 10 52 0 26 1 27 24 18 9 -4 16 -18 16 -33 0 -15 6 -36
14 -47 23 -30 40 -4 38 58 -5 135 -8 177 -14 183 -3 4 -31 8 -61 10 -48 2 -56
0 -63 -19z m84 -45 c5 -29 -13 -50 -29 -34 -15 15 -3 66 14 60 7 -2 14 -14 15
-26z"/>
<path d="M2900 4255 c0 -5 5 -17 10 -25 5 -8 10 -10 10 -5 0 6 -5 17 -10 25
-5 8 -10 11 -10 5z"/>
<path d="M2940 4250 c0 -5 5 -10 10 -10 6 0 10 5 10 10 0 6 -4 10 -10 10 -5 0
-10 -4 -10 -10z"/>
<path d="M2731 4214 c0 -11 3 -14 6 -6 3 7 2 16 -1 19 -3 4 -6 -2 -5 -13z"/>
<path d="M3085 4199 c-4 -6 -5 -12 -2 -15 2 -3 7 2 10 11 7 17 1 20 -8 4z"/>
<path d="M2810 4159 c0 -5 5 -7 10 -4 6 3 10 8 10 11 0 2 -4 4 -10 4 -5 0 -10
-5 -10 -11z"/>
<path d="M3090 4139 c0 -5 5 -7 10 -4 6 3 10 8 10 11 0 2 -4 4 -10 4 -5 0 -10
-5 -10 -11z"/>
<path d="M2990 4131 c0 -5 5 -13 10 -16 6 -3 10 -2 10 4 0 5 -4 13 -10 16 -5
3 -10 2 -10 -4z"/>
<path d="M2945 4120 c-3 -5 -1 -10 4 -10 6 0 11 5 11 10 0 6 -2 10 -4 10 -3 0
-8 -4 -11 -10z"/>
<path d="M171 4104 c0 -11 3 -14 6 -6 3 7 2 16 -1 19 -3 4 -6 -2 -5 -13z"/>
<path d="M140 4090 c0 -11 4 -20 9 -20 5 0 7 9 4 20 -3 11 -7 20 -9 20 -2 0
-4 -9 -4 -20z"/>
<path d="M3041 4078 c-10 -16 -10 -23 0 -32 9 -8 10 -8 5 2 -4 7 -2 20 5 28 6
8 10 16 8 19 -3 2 -11 -5 -18 -17z"/>
<path d="M5 4080 c-3 -5 -1 -10 4 -10 6 0 11 5 11 10 0 6 -2 10 -4 10 -3 0 -8
-4 -11 -10z"/>
<path d="M2990 4065 c0 -5 5 -17 10 -25 5 -8 10 -10 10 -5 0 6 -5 17 -10 25
-5 8 -10 11 -10 5z"/>
<path d="M2801 4044 c0 -11 3 -14 6 -6 3 7 2 16 -1 19 -3 4 -6 -2 -5 -13z"/>
<path d="M101 4024 c0 -11 3 -14 6 -6 3 7 2 16 -1 19 -3 4 -6 -2 -5 -13z"/>
<path d="M3090 4003 c0 -6 8 -17 18 -24 16 -13 16 -13 2 6 -8 11 -16 22 -17
24 -2 2 -3 0 -3 -6z"/>
<path d="M162 3980 c0 -14 2 -19 5 -12 2 6 2 18 0 25 -3 6 -5 1 -5 -13z"/>
<path d="M6531 3952 c-1 -8 -11 -13 -23 -12 -53 5 -66 0 -73 -27 l-6 -27 -12
24 c-12 22 -20 26 -80 35 -23 4 -30 0 -34 -15 -7 -26 -22 -25 -32 2 -4 12 -10
17 -14 11 -4 -7 -20 -8 -42 -3 -47 11 -66 -18 -61 -92 2 -29 5 -66 5 -81 1
-24 5 -28 24 -25 16 2 21 9 19 24 -3 22 42 64 68 64 7 0 10 6 7 13 -3 8 -1 20
4 28 6 10 9 6 10 -16 2 -73 15 -115 34 -115 16 0 29 35 20 50 -3 5 -1 10 4 10
6 0 11 -8 11 -19 0 -10 7 -24 15 -31 13 -11 20 -9 42 11 19 17 24 19 20 7 -7
-21 15 -32 70 -32 47 -1 54 10 24 36 -14 12 -21 13 -25 5 -2 -7 -5 -6 -5 4 -1
9 10 22 24 29 14 7 25 22 25 32 0 18 -7 21 -42 21 -28 0 -21 24 9 32 45 11 74
45 39 45 -8 0 -17 6 -19 13 -4 9 -6 9 -6 -1z m-105 -105 c-3 -11 0 -30 6 -41
10 -19 10 -20 -5 -8 -17 15 -21 86 -5 75 6 -3 7 -14 4 -26z"/>
<path d="M2810 3930 c0 -5 5 -10 11 -10 5 0 7 5 4 10 -3 6 -8 10 -11 10 -2 0
-4 -4 -4 -10z"/>
<path d="M3010 3919 c0 -11 4 -18 10 -14 5 3 7 12 3 20 -7 21 -13 19 -13 -6z"/>
<path d="M6593 3914 c-16 -24 -16 -28 1 -59 10 -18 27 -35 37 -38 10 -3 19
-13 19 -24 -1 -16 -2 -16 -13 -3 -19 24 -51 19 -55 -8 -7 -51 67 -69 112 -27
15 14 26 19 26 11 0 -7 9 -21 20 -31 18 -16 22 -16 57 -2 48 19 54 37 14 37
-26 0 -31 4 -31 23 0 16 3 18 9 9 7 -11 9 -11 14 1 3 8 17 15 31 15 25 0 27
-4 31 -49 0 -9 7 -24 14 -33 18 -22 55 -3 46 25 -4 11 -2 19 4 19 6 0 11 -7
11 -15 0 -16 43 -31 60 -20 10 6 5 78 -6 97 -6 10 21 74 35 83 6 3 10 3 9 -2
-1 -4 3 -18 10 -31 7 -12 12 -32 11 -45 -1 -12 -1 -41 -1 -64 2 -36 5 -43 22
-43 22 0 22 -1 25 84 2 41 7 63 19 71 21 16 20 35 -1 36 -10 1 -36 3 -57 5
-28 2 -43 -2 -52 -14 -8 -11 -13 -12 -14 -4 0 24 -38 13 -44 -13 -7 -27 -29
-25 -24 2 2 11 -7 17 -29 19 -28 3 -34 0 -39 -20 -3 -13 -1 -33 5 -44 8 -15 7
-21 -4 -25 -7 -3 -15 -1 -17 4 -2 6 -12 12 -23 14 -11 2 -22 4 -25 5 -3 1 -8
2 -12 1 -14 -2 -8 26 7 39 8 7 15 9 15 5 0 -4 6 -2 13 4 8 6 17 7 22 3 4 -4 6
0 3 8 -3 11 -19 15 -58 15 -60 0 -59 1 -67 -92 -5 -57 -17 -69 -27 -26 -4 14
-18 35 -32 45 -13 11 -24 25 -24 31 0 7 7 3 15 -7 12 -16 17 -17 30 -6 21 17
19 37 -4 50 -35 18 -69 12 -88 -16z"/>
<path d="M2731 3914 c0 -11 3 -14 6 -6 3 7 2 16 -1 19 -3 4 -6 -2 -5 -13z"/>
<path d="M2791 3914 c0 -11 3 -14 6 -6 3 7 2 16 -1 19 -3 4 -6 -2 -5 -13z"/>
<path d="M8184 3876 c-3 -8 -24 -13 -52 -13 -58 -1 -111 -9 -146 -23 -15 -5
-31 -8 -36 -5 -4 3 -13 -2 -20 -10 -7 -8 -22 -15 -35 -15 -26 0 -74 -15 -132
-41 -24 -10 -50 -19 -58 -19 -8 0 -15 -3 -15 -7 0 -5 -35 -26 -78 -48 -42 -22
-80 -45 -84 -51 -4 -6 -21 -17 -38 -24 -16 -7 -30 -16 -30 -20 0 -4 -17 -19
-37 -32 -41 -28 -178 -158 -209 -199 -10 -14 -23 -27 -28 -30 -22 -10 -66 -54
-66 -66 0 -7 -4 -13 -8 -13 -5 0 -19 -24 -33 -52 -13 -29 -36 -69 -50 -88 -15
-19 -33 -54 -40 -77 -7 -24 -16 -43 -21 -43 -4 0 -8 -8 -8 -17 0 -9 -6 -24
-14 -32 -15 -17 -56 -146 -56 -175 0 -10 -7 -24 -15 -32 -9 -10 -15 -34 -15
-64 0 -27 -5 -61 -11 -77 -16 -40 -22 -112 -20 -243 2 -142 10 -242 22 -254 5
-6 9 -18 9 -27 0 -10 5 -30 12 -46 6 -15 10 -32 10 -36 -1 -4 5 -21 13 -37 8
-16 15 -38 15 -50 0 -12 8 -35 17 -53 9 -18 16 -36 15 -41 -2 -4 5 -20 15 -35
21 -32 64 -133 58 -139 -2 -2 4 -13 14 -23 10 -11 24 -32 32 -47 7 -15 23 -37
34 -49 63 -68 75 -83 75 -92 0 -6 5 -11 11 -11 6 0 42 -31 80 -70 39 -38 73
-70 77 -70 9 0 72 -71 72 -82 0 -4 7 -8 15 -8 9 0 28 -8 43 -19 28 -19 252
-145 262 -147 5 -1 11 -3 110 -41 36 -14 76 -27 90 -29 14 -2 36 -7 50 -11 37
-9 53 -12 77 -16 13 -2 25 -6 29 -10 4 -3 24 -4 45 -1 22 3 39 2 39 -4 0 -5
12 -9 27 -9 15 0 29 -6 31 -12 2 -6 9 -8 15 -4 7 4 68 8 137 10 69 1 152 5
185 8 33 4 66 7 73 7 6 1 12 4 12 8 0 3 8 6 18 7 43 4 109 20 130 32 13 7 26
10 29 8 3 -3 24 5 46 17 23 13 48 21 55 19 6 -3 12 -1 12 4 0 5 12 10 26 11
14 1 37 11 51 22 14 11 29 17 34 14 5 -3 9 -1 9 4 0 9 37 25 53 23 4 -1 7 3 7
9 0 5 4 10 10 10 21 0 169 112 248 187 12 13 27 23 32 23 6 0 10 3 10 8 1 4
30 38 65 76 36 38 65 73 65 78 0 5 13 21 29 36 27 25 48 59 130 212 16 30 36
69 45 85 9 17 16 38 16 47 0 10 9 41 20 70 34 92 70 272 73 370 2 51 7 99 11
106 4 7 3 19 -4 27 -6 7 -11 42 -11 77 -1 35 -5 79 -9 98 -10 41 -33 151 -35
165 -10 84 -149 382 -206 440 -16 17 -29 34 -29 38 0 9 -66 96 -96 126 -13 13
-24 30 -24 37 0 8 -4 14 -8 14 -4 0 -26 17 -47 38 -22 20 -56 49 -75 62 -54
38 -70 53 -70 67 0 7 -7 13 -15 13 -8 0 -24 9 -35 20 -11 11 -27 20 -35 20 -8
0 -15 4 -15 8 0 8 -160 92 -176 92 -5 0 -20 9 -34 20 -14 11 -31 20 -38 20 -7
0 -29 7 -50 16 -20 9 -46 18 -57 19 -11 2 -49 11 -85 21 -36 9 -78 18 -95 20
-16 1 -30 3 -30 4 0 1 -19 3 -42 5 -32 3 -45 0 -53 -13 -8 -14 -11 -15 -19 -3
-5 8 -24 16 -42 18 -39 4 -84 11 -84 13 0 0 -37 2 -83 4 -60 3 -85 0 -88 -8z
m350 -90 c33 -4 63 -9 67 -12 5 -3 25 -7 46 -10 21 -2 42 -9 47 -14 6 -6 24
-10 41 -10 16 0 44 -7 60 -16 17 -9 38 -17 48 -19 41 -9 62 -19 76 -37 9 -10
30 -21 46 -23 17 -2 32 -4 35 -5 3 -2 8 -2 12 -2 3 1 12 -5 18 -13 7 -8 17
-15 22 -15 6 0 30 -13 55 -30 24 -16 48 -30 54 -30 5 0 9 -5 9 -12 0 -6 3 -8
7 -5 3 4 29 -16 56 -43 27 -28 54 -50 60 -50 15 0 163 -153 181 -188 9 -17 24
-37 33 -44 27 -20 46 -63 39 -86 -6 -16 -1 -24 21 -36 44 -23 163 -281 163
-355 0 -11 4 -22 9 -25 26 -17 44 -345 25 -466 -3 -19 -9 -64 -13 -100 -4 -36
-12 -75 -19 -87 -7 -12 -12 -36 -12 -54 0 -18 -6 -40 -14 -48 -7 -9 -25 -53
-40 -98 -15 -45 -34 -87 -42 -93 -8 -7 -14 -19 -14 -26 0 -8 -3 -14 -7 -14 -5
0 -21 -28 -38 -61 -16 -34 -38 -67 -47 -73 -10 -6 -18 -16 -18 -22 0 -5 -20
-33 -44 -62 -24 -28 -46 -55 -48 -60 -1 -4 -18 -18 -35 -31 -18 -12 -33 -30
-33 -38 0 -9 -3 -14 -6 -10 -3 3 -25 -13 -49 -36 -47 -47 -83 -77 -91 -77 -3
0 -22 -13 -42 -29 -42 -34 -176 -103 -242 -125 -42 -14 -88 -14 -130 -1 -10 3
-31 7 -46 9 -16 3 -36 7 -45 11 -10 3 -20 1 -24 -4 -3 -6 -11 -9 -16 -5 -6 3
-29 8 -51 10 -45 4 -67 25 -68 65 0 14 -9 34 -20 44 -26 24 -25 33 4 47 34 15
36 44 9 97 l-23 45 24 25 c20 22 22 30 13 51 -6 14 -12 43 -13 65 -1 22 -5 55
-9 73 -7 32 2 41 21 22 15 -15 38 5 29 26 -5 11 -10 24 -10 29 -1 6 -7 23 -13
38 -7 16 -12 29 -12 31 0 1 14 12 31 25 29 22 32 22 64 7 33 -16 59 -13 82 10
7 7 24 11 38 10 19 -3 25 1 25 16 0 16 3 17 21 8 19 -11 24 -44 5 -38 -5 2
-13 -8 -18 -21 -7 -19 -4 -29 13 -48 13 -12 28 -23 35 -23 7 0 15 -8 19 -17 9
-27 47 -67 78 -80 16 -7 27 -20 27 -32 0 -10 10 -26 23 -34 l22 -16 -35 -30
c-19 -16 -38 -27 -41 -25 -14 8 -39 -8 -39 -25 0 -51 72 -85 130 -61 27 11 34
10 69 -13 43 -29 70 -35 90 -23 8 5 28 11 45 12 31 4 66 35 66 59 0 8 12 15
28 17 21 2 28 9 30 32 3 26 1 28 -20 23 -13 -4 -35 -7 -49 -7 -28 0 -72 -34
-82 -62 -11 -32 -35 -21 -33 14 l1 32 -71 1 c-54 0 -70 3 -67 12 3 7 8 13 12
13 3 0 14 7 24 15 18 13 18 15 1 44 -10 17 -23 31 -29 31 -9 0 -54 84 -54 103
0 10 -40 41 -64 50 -15 6 -18 16 -15 49 3 38 0 43 -22 48 -17 4 -26 14 -28 30
-5 33 -29 59 -50 54 -28 -7 -41 10 -48 58 -6 45 -6 45 26 52 41 8 45 4 45 -46
0 -44 2 -45 75 -53 19 -2 35 -4 35 -5 0 -5 123 -20 162 -20 19 -1 37 -8 45
-18 21 -29 54 -40 131 -43 20 -1 37 -5 37 -10 0 -5 6 -6 14 -3 8 3 17 1 21 -5
3 -6 28 -11 54 -11 41 0 50 4 61 26 8 14 14 50 14 80 0 37 4 54 13 54 7 0 13
-4 13 -10 0 -5 6 -10 14 -10 8 0 16 -6 19 -12 3 -10 7 -10 19 0 10 7 19 9 22
4 10 -16 71 -8 74 9 3 15 -50 38 -103 45 -11 1 -20 3 -20 4 0 1 -20 4 -44 6
-53 6 -97 -12 -80 -32 6 -8 9 -21 5 -29 -4 -12 -18 -14 -63 -11 -32 3 -60 5
-63 6 -3 1 -14 3 -25 4 -11 0 -25 13 -33 28 -13 27 -35 39 -82 43 -42 4 -70
17 -70 31 0 8 5 14 11 14 5 0 7 5 4 10 -3 6 1 10 9 10 9 0 16 -7 16 -15 0 -21
19 -19 27 3 4 9 10 20 15 23 5 3 2 19 -7 35 -17 33 -4 45 21 19 12 -12 19 -13
30 -4 8 6 14 8 14 4 0 -5 8 -1 18 7 9 8 31 20 48 27 24 9 30 17 27 32 -9 34 6
68 39 85 50 26 79 63 67 85 -5 11 -7 23 -4 28 5 10 -46 51 -63 51 -6 0 -8 -16
-5 -40 7 -47 -10 -59 -66 -44 -45 12 -131 -16 -153 -49 -9 -15 3 -40 14 -29
11 11 95 -1 111 -17 9 -9 9 -16 -1 -29 -7 -9 -16 -27 -22 -39 -5 -13 -12 -23
-15 -23 -12 0 -95 93 -95 106 0 8 -5 14 -11 14 -16 0 -3 59 18 82 9 10 22 18
30 18 7 0 13 4 13 9 0 5 12 13 26 18 22 7 26 15 28 59 4 69 11 77 54 70 21 -3
63 1 97 10 33 9 66 17 72 18 15 3 93 78 93 90 0 5 12 24 26 43 29 38 27 64 -5
104 l-19 24 -20 -23 c-16 -19 -24 -21 -46 -12 -14 5 -26 16 -26 24 0 16 -23
27 -36 18 -5 -4 -11 -16 -12 -27 -2 -11 -8 -25 -14 -32 -5 -7 -8 -28 -5 -47 6
-41 -7 -60 -48 -72 -34 -11 -85 -7 -85 6 0 11 26 37 57 57 31 21 88 109 104
162 10 35 10 44 -7 68 -18 27 -20 32 -23 51 -2 13 -34 11 -56 -4 -12 -9 -14
-14 -6 -14 11 0 10 -4 -2 -18 -21 -23 -22 -52 -1 -52 9 0 14 -6 11 -12 -2 -7
0 -21 5 -30 13 -26 -25 -93 -63 -112 -40 -20 -37 -21 -41 11 -2 20 -9 27 -27
28 -13 1 -33 12 -43 25 -16 20 -21 21 -29 9 -6 -10 -9 -10 -9 -1 0 7 -13 12
-33 12 -24 0 -35 6 -42 23 -6 12 -16 21 -23 20 -7 -2 -12 1 -12 7 0 5 -13 8
-30 6 -29 -3 -42 15 -20 29 5 3 7 11 4 18 -3 9 14 12 64 11 57 -1 73 3 94 21
30 26 58 80 58 112 0 41 -27 93 -48 93 -22 0 -38 -40 -21 -51 6 -3 7 -17 2
-35 -9 -35 -10 -41 -12 -55 0 -5 -9 -9 -18 -8 -10 2 -28 -3 -41 -10 -20 -11
-19 -6 11 36 l34 48 -23 65 c-12 36 -23 61 -23 55 -1 -5 -6 -4 -12 2 -6 6 -17
9 -23 7 -7 -3 -18 8 -25 23 -30 65 -41 78 -61 81 -19 3 -21 0 -19 -32 2 -19 0
-38 -3 -41 -10 -11 3 -35 19 -35 9 0 11 -5 6 -12 -4 -7 -9 -22 -10 -32 -4 -26
-8 -28 -39 -28 -15 0 -31 7 -36 16 -5 9 -17 16 -27 16 -11 0 -21 6 -24 13 -8
20 -94 58 -120 53 -31 -6 -82 -33 -98 -52 -11 -14 -15 -12 -28 14 -25 47 -71
78 -142 96 -85 21 -97 20 -101 -6 -3 -22 -3 -22 -22 -2 -17 17 -19 17 -13 2 4
-10 2 -18 -4 -18 -6 0 -9 -9 -6 -20 4 -15 0 -20 -14 -20 -13 0 -18 6 -16 20 2
11 6 23 10 26 4 4 2 13 -4 20 -17 21 10 84 53 125 39 37 44 56 32 118 -11 53
-54 28 -54 -32 0 -25 -27 -44 -41 -30 -4 4 -10 23 -13 42 -5 39 -22 54 -47 41
-28 -16 -41 -120 -14 -120 8 0 15 -5 15 -11 0 -5 -5 -7 -11 -4 -5 4 -19 -4
-30 -16 l-20 -23 21 -16 21 -16 -25 -22 c-26 -22 -26 -37 0 -76 12 -17 10 -22
-8 -35 -12 -8 -23 -11 -25 -5 -4 13 -140 9 -167 -6 -13 -7 -29 -24 -36 -39 -6
-14 -18 -33 -27 -41 -8 -8 -23 -30 -34 -48 -27 -46 -52 -40 -55 15 -1 23 -5
47 -9 52 -11 20 -35 12 -35 -11 0 -29 -7 -37 -49 -67 -30 -21 -35 -22 -48 -8
-14 14 -13 17 6 33 22 20 29 78 10 89 -14 9 -49 -24 -49 -46 0 -10 -9 -20 -19
-24 -19 -6 -33 -46 -22 -62 19 -27 75 -49 129 -52 8 -1 12 -9 10 -18 -2 -13
-14 -18 -38 -19 -19 -1 -40 -2 -47 -3 -7 0 -23 -17 -37 -38 -26 -37 -26 -37
-27 24 -1 46 -56 56 -85 15 -14 -20 -14 -23 0 -28 24 -9 19 -20 -14 -34 -26
-11 -32 -9 -56 9 -31 24 -52 26 -77 6 -28 -20 -18 -50 16 -48 18 1 27 -3 27
-13 0 -9 -11 -14 -30 -14 -39 0 -39 -16 1 -90 20 -39 42 -64 65 -76 30 -16 32
-20 19 -30 -21 -16 -90 -10 -120 10 -21 14 -22 20 -15 48 15 55 8 93 -18 96
-23 4 -34 -12 -36 -51 -1 -16 -8 -23 -28 -25 -16 -2 -28 -8 -28 -14 0 -13 67
-78 80 -78 5 0 24 -10 43 -23 35 -24 57 -25 183 -11 50 6 51 5 71 -28 l20 -34
-28 -13 c-29 -13 -47 -43 -30 -49 6 -2 11 -11 11 -19 0 -11 -7 -14 -24 -9 -25
6 -36 -7 -36 -45 0 -10 -7 -19 -15 -19 -10 0 -15 -10 -15 -34 0 -31 -3 -34
-25 -32 -13 2 -31 9 -39 15 -12 10 -17 8 -26 -9 -8 -15 -17 -19 -31 -15 -15 5
-19 2 -19 -19 0 -29 31 -66 55 -66 9 0 20 11 25 25 10 27 29 32 47 14 16 -16
5 -39 -23 -49 -12 -5 -28 -18 -33 -29 -9 -17 -5 -25 28 -53 36 -31 45 -34 98
-31 82 3 112 9 132 27 10 9 32 16 50 16 25 0 33 -5 41 -27 20 -53 33 -72 54
-75 13 -2 22 -12 24 -26 3 -19 6 -21 18 -11 8 6 17 9 21 6 10 -11 -39 -127
-59 -142 -19 -13 -19 -14 7 -31 25 -16 29 -16 53 -2 31 19 62 73 62 107 0 45
64 87 67 44 5 -61 13 -94 33 -143 13 -30 27 -59 31 -64 13 -15 23 45 10 65 -6
10 -11 29 -11 42 0 13 -6 29 -12 36 -11 11 -8 13 14 9 15 -3 29 0 31 6 2 6 8
8 12 4 4 -4 2 -15 -6 -24 -8 -10 -12 -20 -11 -23 2 -3 8 -14 13 -24 8 -14 14
-15 29 -7 11 6 20 18 21 28 0 10 3 12 5 5 3 -7 21 -22 39 -33 43 -27 120 -19
158 15 l24 23 23 -30 c19 -26 21 -34 10 -51 -7 -11 -14 -51 -16 -90 -2 -45 -8
-73 -17 -80 -8 -7 -16 -18 -18 -25 -3 -9 -14 -7 -43 7 -36 19 -41 19 -68 5
-16 -9 -36 -13 -43 -10 -15 5 -45 47 -49 68 -6 27 -21 54 -43 78 -20 21 -25
23 -33 10 -14 -22 -12 -46 5 -60 8 -7 27 -36 41 -64 38 -75 62 -98 104 -95 39
2 80 -9 80 -21 0 -5 -18 -27 -40 -49 -46 -46 -46 -48 -23 -73 21 -24 25 -46
11 -72 -6 -12 -12 -30 -14 -41 -7 -57 -20 -72 -83 -85 -59 -12 -61 -12 -95 14
-19 14 -38 26 -43 26 -4 0 -20 6 -34 14 -14 7 -63 19 -108 27 -48 7 -85 18
-88 26 -3 7 -9 13 -13 13 -4 0 -30 15 -58 33 -52 34 -114 70 -122 72 -3 0 -35
15 -73 33 -37 18 -77 34 -88 35 -11 2 -24 10 -29 17 -5 8 -29 14 -58 16 -38 1
-60 10 -100 38 -29 20 -52 34 -52 31 0 -3 -9 -1 -20 5 -11 6 -20 19 -20 30 0
10 -4 21 -9 25 -5 3 -12 18 -16 34 -3 16 -13 35 -20 41 -8 7 -17 28 -21 49 -3
20 -12 50 -19 66 -7 17 -18 55 -24 85 -7 30 -16 64 -21 75 -27 64 -36 454 -12
516 6 14 13 46 16 70 8 66 24 123 35 127 5 2 8 9 5 17 -3 7 0 24 7 37 7 13 12
27 11 32 -2 5 5 25 15 45 9 20 18 38 19 41 6 26 36 80 44 80 6 0 10 9 10 20 0
11 3 20 8 20 4 0 12 8 17 18 29 53 51 82 63 82 6 0 12 4 12 10 0 5 10 20 23
34 34 39 77 93 77 99 0 19 186 181 220 192 13 4 32 18 42 31 10 12 35 28 56
35 20 6 41 18 45 25 4 8 13 14 20 14 7 0 24 6 39 14 15 8 42 17 60 21 18 4 53
18 78 30 38 20 209 66 260 71 8 0 17 2 20 4 3 1 35 3 72 5 38 1 70 4 73 7 6 6
160 2 239 -6z m-374 -374 c0 -39 -11 -47 -25 -19 -14 26 -9 47 11 47 9 0 14
-11 14 -28z m105 -92 c3 -5 1 -10 -4 -10 -6 0 -11 5 -11 10 0 6 2 10 4 10 3 0
8 -4 11 -10z m51 -46 c-4 -9 -9 -15 -11 -12 -3 3 -3 13 1 22 4 9 9 15 11 12 3
-3 3 -13 -1 -22z m657 -66 c-6 -86 -8 -93 -17 -100 -6 -4 -14 -2 -18 5 -11 18
-10 67 2 67 6 0 10 10 10 23 0 17 16 47 25 47 0 0 -1 -19 -2 -42z m-918 22
c-4 -6 -11 -7 -17 -4 -6 4 -8 2 -4 -4 3 -6 2 -13 -3 -16 -12 -8 -24 11 -16 24
3 6 15 10 26 10 11 0 17 -5 14 -10z m-30 -40 c3 -5 -1 -10 -9 -10 -9 0 -16 5
-16 10 0 6 4 10 9 10 6 0 13 -4 16 -10z m665 6 c0 -3 -4 -8 -10 -11 -5 -3 -10
-1 -10 4 0 6 5 11 10 11 6 0 10 -2 10 -4z m-40 -15 c0 -5 -7 -14 -15 -21 -12
-10 -15 -10 -15 2 0 8 3 18 7 21 9 10 23 9 23 -2z m-330 -15 c0 -16 -18 -31
-27 -22 -8 8 5 36 17 36 5 0 10 -6 10 -14z m207 -18 c-3 -7 -5 -2 -5 12 0 14
2 19 5 13 2 -7 2 -19 0 -25z m-637 11 c0 -5 -4 -8 -9 -4 -6 3 -14 -2 -19 -11
-7 -12 -11 -13 -17 -4 -4 7 -2 16 6 21 19 12 39 11 39 -2z m350 -25 c15 -39
12 -68 -10 -87 -11 -9 -21 -17 -23 -17 -3 0 -6 31 -7 65 -1 10 -6 25 -11 32
-14 16 -3 33 22 33 12 0 23 -10 29 -26z m-264 -16 c-9 -12 -16 -30 -16 -40 0
-10 -3 -18 -6 -18 -12 0 -34 30 -34 47 0 14 2 15 9 4 7 -11 12 -10 22 8 8 11
20 21 27 21 10 0 10 -5 -2 -22z m539 12 c3 -5 -1 -10 -10 -10 -9 0 -13 5 -10
10 3 6 8 10 10 10 2 0 7 -4 10 -10z m-65 -42 c0 -13 7 -36 15 -52 18 -34 6
-54 -17 -29 -16 17 -23 48 -20 86 3 25 22 21 22 -5z m-594 -24 c-7 -27 -47
-94 -57 -94 -3 0 -11 11 -19 24 -7 14 -23 27 -36 30 -23 6 -35 36 -14 36 6 0
10 -4 10 -9 0 -4 14 -7 30 -5 21 3 33 -1 36 -11 4 -8 11 -15 17 -15 8 0 8 3 0
11 -9 9 -8 18 5 35 23 31 36 30 28 -2z m205 -14 c6 0 7 -4 4 -10 -10 -16 -45
-12 -45 6 0 11 5 14 16 10 9 -3 20 -6 25 -6z m533 -26 c9 -24 7 -28 -9 -14
-17 14 -20 30 -6 30 5 0 12 -7 15 -16z m-667 -26 c-3 -7 -5 -2 -5 12 0 14 2
19 5 13 2 -7 2 -19 0 -25z m451 0 c-4 -27 -23 -34 -32 -13 -8 21 1 35 20 35
10 0 14 -8 12 -22z m-720 -4 c30 -21 19 -35 -18 -22 -30 10 -36 19 -23 31 9
10 16 9 41 -9z m842 -4 c0 -5 -4 -10 -10 -10 -5 0 -10 5 -10 10 0 6 5 10 10
10 6 0 10 -4 10 -10z m-486 -90 c21 0 20 -13 -3 -34 -18 -16 -56 -12 -46 5 3
4 13 5 21 2 14 -5 14 -3 3 16 -8 11 -18 21 -23 21 -12 0 -35 31 -36 48 0 7 15
-3 34 -23 19 -19 41 -35 50 -35z m103 43 c-8 -7 -37 9 -31 19 3 5 12 4 20 -3
8 -6 13 -14 11 -16z m84 2 c11 6 12 5 2 -6 -7 -7 -13 -22 -13 -33 0 -30 -12
-11 -16 26 -3 22 -1 28 5 19 5 -8 14 -10 22 -6z m77 -4 c-6 -10 -18 -17 -25
-14 -18 7 -16 21 5 26 31 8 32 7 20 -12z m-684 -10 c3 -4 -3 -16 -14 -26 -19
-17 -20 -17 -20 2 0 29 22 45 34 24z m948 -3 c9 2 32 -5 51 -16 29 -15 33 -21
23 -34 -18 -24 -49 -25 -78 -3 -27 22 -52 75 -27 59 8 -5 21 -7 31 -6z m-1042
-18 c0 -5 7 -10 15 -10 23 0 18 -17 -6 -23 -22 -6 -59 11 -59 26 0 5 7 7 15 3
8 -3 15 -1 15 4 0 6 5 10 10 10 6 0 10 -4 10 -10z m1213 -16 c-8 -21 -23 -17
-23 6 0 13 5 18 14 14 8 -3 12 -12 9 -20z m-458 7 c3 -5 1 -12 -4 -15 -5 -3
-11 1 -15 9 -6 16 9 21 19 6z m-861 -25 c-5 -13 58 -76 76 -76 6 0 10 -7 10
-16 0 -10 -6 -14 -15 -11 -8 4 -17 2 -20 -3 -10 -16 -22 -12 -60 22 -30 26
-35 36 -30 57 4 14 11 31 17 38 13 16 29 7 22 -11z m406 -38 c0 -15 -4 -28
-10 -28 -5 0 -10 6 -10 14 0 8 -7 22 -16 31 -13 13 -14 18 -3 31 12 14 14 14
26 -2 7 -10 13 -30 13 -46z m1090 47 c10 -12 9 -15 -6 -16 -31 -2 -48 2 -59
13 -7 8 -6 9 3 4 6 -4 12 -2 12 3 0 16 36 13 50 -4z m-1187 -35 c4 -16 0 -20
-19 -20 -20 0 -24 5 -24 30 0 27 2 29 19 21 10 -6 21 -20 24 -31z m237 6 c0
-10 -28 -7 -35 4 -11 18 5 31 21 16 8 -8 14 -17 14 -20z m270 -1 c11 -13 10
-14 -2 -10 -10 4 -17 -1 -21 -14 -10 -41 97 -40 157 2 17 12 33 25 34 30 2 4
17 7 33 7 22 0 32 -6 39 -25 5 -14 17 -25 25 -25 9 0 18 -7 21 -15 4 -9 19
-15 40 -15 19 0 34 -4 34 -8 0 -5 20 -19 45 -31 25 -12 45 -26 45 -30 0 -4 8
-16 19 -27 35 -39 46 -69 46 -135 0 -49 5 -72 17 -86 12 -13 14 -23 8 -33 -5
-8 -10 -24 -10 -35 -1 -49 -97 -198 -108 -167 -2 8 -9 9 -22 2 -10 -6 -37 -12
-59 -15 -52 -7 -91 -22 -91 -36 0 -13 -57 -2 -85 17 -46 33 -72 7 -36 -37 14
-18 30 -23 74 -26 31 -1 59 2 62 7 4 6 15 10 26 10 18 0 20 -4 14 -32 -4 -18
-13 -40 -21 -49 -8 -8 -14 -21 -14 -28 0 -7 -10 -11 -22 -10 -13 2 -29 0 -36
-5 -18 -11 -34 6 -26 28 4 11 13 15 25 11 12 -4 21 -1 25 10 16 40 -55 57 -85
19 -10 -13 -21 -21 -23 -18 -3 3 -33 7 -68 9 -34 3 -65 7 -69 10 -4 2 -21 1
-36 -3 l-29 -8 22 -22 c26 -26 28 -38 6 -46 -32 -12 -50 -5 -61 24 -8 22 -16
28 -28 24 -10 -4 -15 -14 -12 -25 3 -11 4 -19 2 -19 -2 0 -9 -2 -17 -5 -9 -4
-13 4 -13 26 0 18 -6 34 -13 37 -11 3 -12 0 -2 -18 15 -28 -5 -46 -26 -25 -8
7 -19 15 -26 18 -10 3 -8 13 7 42 l20 38 -39 33 c-21 18 -42 32 -46 29 -4 -2
-23 5 -43 15 -49 26 -71 26 -64 0 6 -23 -11 -27 -19 -5 -5 11 -10 13 -19 5 -8
-7 -17 -5 -28 8 -18 19 -9 45 14 41 8 -2 26 0 41 4 23 6 27 12 26 46 0 38 19
111 29 111 3 0 18 -15 34 -32 30 -35 42 -33 42 7 0 14 2 25 6 26 3 0 18 3 34
5 15 3 27 0 27 -6 0 -27 92 4 104 35 3 9 11 13 17 9 20 -12 4 81 -17 104 -40
43 -149 59 -184 27 -9 -8 -22 -15 -28 -15 -6 0 -17 -9 -25 -20 -8 -11 -17 -17
-20 -13 -15 14 -6 61 16 86 12 15 31 49 42 77 19 48 25 54 53 51 6 -1 12 4 12
11 0 10 23 13 88 13 91 0 122 12 122 48 0 9 6 18 13 20 6 3 13 6 13 6 1 1 7
-6 14 -14z m590 -15 c0 -13 -5 -18 -14 -14 -8 3 -12 12 -9 20 8 21 23 17 23
-6z m137 -62 c-3 -8 -6 -5 -6 6 -1 11 2 17 5 13 3 -3 4 -12 1 -19z m-3 -39
c-6 -11 -24 -2 -24 11 0 5 7 7 15 4 8 -4 12 -10 9 -15z m-1344 -3 c0 -8 -7
-16 -15 -20 -8 -3 -15 -4 -15 -2 0 3 -3 11 -6 20 -4 12 0 16 15 16 12 0 21 -6
21 -14z m1898 -6 c2 -14 -24 -34 -91 -68 -43 -23 -41 -10 6 41 42 46 79 58 85
27z m-368 -10 c0 -5 -7 -7 -15 -4 -8 4 -12 10 -9 15 6 11 24 2 24 -11z m-1419
-13 c-10 -9 -11 -8 -5 6 3 10 9 15 12 12 3 -3 0 -11 -7 -18z m1116 1 c-3 -8
-6 -5 -6 6 -1 11 2 17 5 13 3 -3 4 -12 1 -19z m-1047 -29 c0 -5 -9 -9 -20 -9
-22 0 -27 16 -7 23 15 5 27 -1 27 -14z m1350 11 c0 -5 -4 -10 -10 -10 -5 0
-10 5 -10 10 0 6 5 10 10 10 6 0 10 -4 10 -10z m-303 -22 c-3 -8 -6 -5 -6 6
-1 11 2 17 5 13 3 -3 4 -12 1 -19z m166 -18 c-3 -11 -12 -20 -19 -20 -17 0
-18 7 -1 25 17 20 26 18 20 -5z m-1329 -29 c3 -5 -3 -11 -14 -14 -20 -5 -26 3
-13 16 9 10 21 9 27 -2z m1171 -1 c3 -5 1 -10 -4 -10 -6 0 -11 5 -11 10 0 6 2
10 4 10 3 0 8 -4 11 -10z m-1255 -100 c0 -5 -7 -7 -15 -4 -8 4 -12 10 -9 15 6
11 24 2 24 -11z m-13 -86 c-2 -2 -13 -1 -25 3 -18 4 -20 8 -10 20 10 13 14 13
25 -3 7 -10 12 -19 10 -20z m1343 32 c0 -9 -40 -13 -46 -5 -3 5 6 9 20 9 14 0
26 -2 26 -4z m-1215 -26 c3 -5 -1 -10 -9 -10 -9 0 -16 5 -16 10 0 6 4 10 9 10
6 0 13 -4 16 -10z m1274 -44 c10 -12 8 -15 -11 -18 -16 -2 -24 -11 -26 -28 -3
-24 -42 -62 -42 -41 0 29 42 98 61 100 4 1 12 -5 18 -13z m-1427 -60 c4 -6 8
-14 8 -17 0 -10 -40 -18 -56 -12 -15 5 -19 35 -7 46 9 9 46 -2 55 -17z m128
-56 c0 -12 -15 -19 -50 -22 -14 -2 -27 -5 -30 -8 -13 -13 -61 -29 -74 -24 -8
3 -17 1 -20 -4 -7 -12 -46 -4 -46 9 0 13 19 19 66 23 22 1 50 8 62 15 13 7 29
10 36 8 7 -3 19 -1 27 4 19 12 29 11 29 -1z m1448 -82 c2 -9 -14 -14 -53 -16
-61 -3 -69 6 -33 44 23 23 23 23 53 4 16 -11 31 -25 33 -32z m-1348 -48 c10
-6 12 -12 5 -19 -7 -7 -14 -4 -23 9 -13 21 -6 25 18 10z m90 -4 c0 -21 -17
-29 -46 -22 -20 5 -22 9 -12 21 17 19 58 19 58 1z m1121 -29 c-7 -7 -14 -8
-21 -1 -6 6 -2 10 12 11 16 2 18 -1 9 -10z m-429 -49 c-6 -6 -15 -8 -19 -4 -4
4 -1 11 7 16 19 12 27 3 12 -12z m-282 -23 c0 -35 -18 -40 -30 -9 -8 20 -8 29
2 35 17 11 28 1 28 -26z m267 -37 c-3 -8 -6 -5 -6 6 -1 11 2 17 5 13 3 -3 4
-12 1 -19z m67 -34 c-4 -14 0 -23 10 -27 18 -7 22 -27 6 -27 -20 0 -59 51 -53
68 15 41 48 28 37 -14z m-134 -4 c-6 -11 -15 -20 -20 -20 -13 0 -13 -47 -1
-55 5 -3 12 -1 16 5 3 5 15 10 25 10 20 0 40 -50 40 -97 0 -26 -15 -30 -28 -7
-8 14 -13 14 -51 -2 -23 -9 -45 -14 -48 -10 -4 3 -2 6 3 6 5 0 9 25 9 55 0 30
-4 55 -9 54 -9 -1 -26 21 -26 34 0 5 9 5 20 2 14 -5 27 1 43 19 26 31 42 34
27 6z m-268 -5 c0 -5 -5 -11 -11 -13 -6 -2 -11 4 -11 13 0 9 5 15 11 13 6 -2
11 -8 11 -13z m1066 -57 c4 -19 -27 -33 -41 -19 -7 7 -6 16 3 26 15 18 34 15
38 -7z m-788 -152 c0 -3 -4 -8 -10 -11 -5 -3 -10 -1 -10 4 0 6 5 11 10 11 6 0
10 -2 10 -4z m-49 -37 c-13 -11 -26 -17 -29 -14 -7 6 29 34 43 34 6 0 -1 -9
-14 -20z m-1042 -187 c18 -10 32 -22 30 -27 -5 -10 -49 -14 -49 -4 0 4 -9 9
-20 12 -22 6 -28 37 -7 37 7 0 27 -8 46 -18z m1075 -19 c4 -10 -2 -25 -16 -40
-19 -21 -21 -27 -10 -44 16 -25 2 -46 -31 -51 -30 -4 -28 -31 3 -38 34 -8 36
-33 6 -54 -22 -14 -24 -20 -16 -41 13 -35 -6 -42 -42 -15 -17 13 -38 20 -50
17 -20 -6 -74 9 -96 26 -10 8 -9 14 4 28 22 24 41 24 53 0 7 -13 18 -17 35
-14 22 5 23 8 15 33 -6 15 -19 37 -30 48 -22 25 -23 33 -8 81 20 63 23 66 85
72 32 3 66 6 75 7 9 1 20 -5 23 -15z m-1075 -83 c9 -4 43 -14 76 -21 145 -29
218 -63 282 -132 17 -17 46 -45 65 -61 35 -28 35 -29 17 -47 -11 -11 -26 -19
-35 -19 -12 0 -15 -6 -10 -25 5 -20 3 -23 -11 -18 -40 15 -131 67 -178 103
-27 21 -71 49 -98 63 -46 24 -164 138 -191 184 -6 12 35 -2 83 -27z m496 -120
c0 -1 8 -3 18 -5 10 -2 26 -7 35 -11 22 -9 29 -11 47 -13 8 0 15 -7 15 -15 0
-8 9 -18 20 -21 11 -3 20 -11 20 -17 0 -6 9 -8 20 -5 13 3 20 0 20 -9 0 -8 8
-14 18 -14 9 0 26 -7 36 -15 10 -8 23 -12 27 -9 11 6 49 -14 49 -26 0 -34 -83
-54 -112 -27 -7 6 -18 13 -23 14 -6 1 -18 5 -27 8 -11 4 -18 3 -18 -4 0 -6 -4
-11 -10 -11 -5 0 -6 7 -3 17 4 10 2 14 -4 10 -6 -4 -23 5 -39 20 -16 15 -54
40 -84 56 -56 29 -100 64 -100 79 0 4 21 6 48 4 26 -2 47 -5 47 -6z m179 -65
c-4 -8 -8 -15 -10 -15 -2 0 -4 7 -4 15 0 8 4 15 10 15 5 0 7 -7 4 -15z m266
-117 c0 -9 3 -9 11 -1 8 8 18 7 37 -3 15 -8 32 -14 38 -14 15 0 10 -42 -7 -51
-8 -5 -31 -11 -51 -14 -41 -6 -50 -24 -18 -32 11 -3 20 -12 20 -19 0 -12 -13
-13 -62 -9 -35 3 -70 6 -78 6 -55 1 -79 24 -60 59 11 20 55 23 68 5 4 -6 25
-11 47 -12 l40 -2 -29 24 c-27 21 -29 26 -18 49 8 18 19 26 37 26 14 0 25 -5
25 -12z m-315 -10 c14 -6 25 -15 25 -20 0 -4 5 -8 11 -8 17 0 39 -27 39 -48 0
-31 -41 -35 -104 -11 -63 23 -72 32 -51 49 12 10 13 16 3 28 -10 12 -10 14 -1
8 7 -4 21 -2 30 3 22 13 18 13 48 -1z m-123 -25 c10 -9 18 -19 18 -23 0 -13
-56 2 -80 21 l-25 19 34 0 c19 0 43 -7 53 -17z m657 -17 c9 -11 35 -14 101
-13 89 2 113 -4 93 -24 -15 -15 -82 -29 -89 -18 -3 5 -10 7 -15 4 -5 -4 -9 -2
-9 3 0 5 -11 8 -25 7 -14 -2 -27 0 -30 5 -2 4 -16 6 -29 5 -27 -3 -52 18 -41
35 9 14 30 12 44 -4z m-514 -86 c3 -5 1 -10 -4 -10 -6 0 -11 5 -11 10 0 6 2
10 4 10 3 0 8 -4 11 -10z"/>
<path d="M7752 3341 c-37 -57 -38 -62 -13 -85 19 -17 21 -17 46 8 22 22 25 33
21 67 -7 63 -19 65 -54 10z"/>
<path d="M7661 2109 c-22 -13 -42 -18 -58 -14 -15 3 -25 1 -29 -9 -7 -18 -45
-28 -60 -15 -7 6 -15 4 -24 -5 -18 -23 -5 -33 51 -41 39 -5 54 -3 67 9 10 8
34 22 55 31 29 12 37 21 37 40 0 30 3 30 -39 4z"/>
<path d="M7702 2009 c-13 -5 -28 -7 -32 -4 -5 3 -14 -4 -20 -15 -8 -14 -21
-20 -45 -20 -44 0 -48 -26 -5 -35 36 -8 96 16 122 49 29 35 23 43 -20 25z"/>
<path d="M8360 2670 c0 -6 -5 -10 -11 -10 -6 0 -29 -15 -52 -34 -34 -27 -45
-32 -59 -23 -14 9 -22 7 -38 -11 -18 -19 -20 -30 -14 -67 3 -25 10 -48 15 -51
5 -3 9 -13 8 -22 0 -14 -3 -13 -16 6 -24 34 -50 28 -69 -15 -9 -21 -16 -53
-16 -70 0 -18 -4 -33 -8 -33 -12 0 -6 -63 6 -67 6 -2 17 3 24 12 13 16 35 21
25 6 -3 -5 -1 -12 4 -15 4 -3 11 -19 15 -36 5 -26 9 -29 23 -21 13 6 24 5 37
-4 21 -16 46 -9 46 12 0 12 -7 14 -30 10 -35 -8 -51 10 -25 29 11 8 20 29 22
50 3 46 10 54 19 20 3 -14 10 -26 15 -26 5 0 9 -8 9 -18 0 -23 39 -47 53 -33
7 7 2 21 -16 45 -15 19 -27 42 -27 51 0 8 -7 27 -16 40 -21 32 -12 55 18 48
13 -3 29 -10 36 -16 9 -7 16 -5 25 7 8 10 22 15 37 12 18 -2 32 4 47 21 16 18
27 23 40 17 38 -16 64 -13 72 8 8 23 8 33 -3 94 -11 63 -38 82 -124 88 -44 4
-72 2 -72 -4z m-123 -152 c-3 -8 -6 -5 -6 6 -1 11 2 17 5 13 3 -3 4 -12 1 -19z
m-3 -110 c10 -38 6 -45 -9 -18 -17 29 -18 40 -6 40 5 0 11 -10 15 -22z"/>
<path d="M8617 2673 c-20 -20 11 -123 46 -152 26 -21 33 11 13 62 -9 24 -16
52 -16 64 0 11 -7 24 -16 27 -19 7 -19 7 -27 -1z"/>
<path d="M8112 2093 c2 -9 8 -18 15 -20 7 -3 9 3 6 16 -6 25 -26 28 -21 4z"/>
<path d="M61 3824 c0 -11 3 -14 6 -6 3 7 2 16 -1 19 -3 4 -6 -2 -5 -13z"/>
<path d="M2299 3814 c-24 -26 -30 -50 -31 -137 -1 -57 3 -71 21 -88 11 -11 21
-24 21 -29 0 -24 110 0 141 31 13 13 18 27 14 40 -12 38 2 55 42 51 21 -3 43
-12 49 -20 10 -14 14 -14 28 -2 20 16 17 60 -4 70 -8 4 -39 22 -68 39 -29 17
-58 31 -63 31 -5 0 -19 9 -31 19 -28 27 -92 24 -119 -5z m86 -113 c0 -49 -4
-66 -17 -75 -25 -15 -31 -4 -34 73 l-3 70 27 -2 c26 -2 27 -4 27 -66z"/>
<path d="M80 3791 c0 -6 4 -13 10 -16 6 -3 7 1 4 9 -7 18 -14 21 -14 7z"/>
<path d="M2831 3754 c0 -11 3 -14 6 -6 3 7 2 16 -1 19 -3 4 -6 -2 -5 -13z"/>
<path d="M2740 3680 c0 -5 5 -10 11 -10 5 0 7 5 4 10 -3 6 -8 10 -11 10 -2 0
-4 -4 -4 -10z"/>
<path d="M1994 3635 c-8 -34 1 -55 25 -55 28 0 37 37 15 61 -23 25 -32 24 -40
-6z"/>
<path d="M3522 3570 c-13 -17 -29 -30 -36 -30 -31 0 -67 -67 -87 -158 -6 -32
-5 -49 5 -65 7 -12 16 -33 20 -47 9 -37 36 -64 99 -100 60 -34 55 -33 182 -15
11 1 26 3 33 4 21 2 79 80 118 159 14 28 -16 41 -84 38 -76 -4 -90 -20 -52
-61 20 -21 20 -26 9 -65 -14 -46 -38 -68 -71 -64 -13 1 -30 3 -39 3 -8 1 -25
10 -37 21 -12 11 -26 20 -31 20 -5 0 -22 26 -37 58 -22 44 -28 71 -27 118 1
65 13 94 65 150 28 29 28 31 10 47 -17 16 -20 15 -40 -13z"/>
<path d="M2978 3573 c7 -3 16 -2 19 1 4 3 -2 6 -13 5 -11 0 -14 -3 -6 -6z"/>
<path d="M3676 3572 c-6 -10 35 -50 77 -77 24 -16 30 -16 38 -4 16 25 9 56
-16 73 -26 17 -90 22 -99 8z"/>
<path d="M3898 3560 c-16 -9 -25 -20 -21 -23 3 -4 -1 -7 -10 -7 -22 0 -21 -12
3 -40 18 -21 26 -64 22 -125 -3 -53 -2 -153 2 -175 2 -14 5 -28 5 -32 1 -4 10
-12 21 -18 17 -9 24 -6 45 16 29 31 31 44 11 83 -21 39 -16 101 7 101 18 0 57
-34 57 -50 0 -5 5 -10 10 -10 6 0 23 -20 38 -44 33 -51 97 -116 115 -116 19 1
48 26 63 55 12 23 12 29 0 41 -8 8 -22 14 -32 14 -28 0 -99 50 -118 83 -17 30
-17 31 6 48 12 10 25 16 29 13 14 -9 59 73 59 108 0 56 -44 88 -120 88 -42 0
-59 -4 -63 -15 -8 -19 7 -27 36 -20 17 5 32 0 51 -17 24 -21 27 -28 21 -61 -4
-20 -11 -37 -16 -37 -4 0 -23 -13 -41 -29 -26 -23 -42 -29 -73 -28 -37 2 -40
4 -40 32 0 17 -3 35 -7 40 -4 6 -3 17 2 25 12 19 0 81 -19 101 -15 15 -18 15
-43 -1z"/>
<path d="M4454 3573 c-13 -5 -7 -43 7 -43 15 0 10 -47 -6 -60 -8 -7 -15 -20
-15 -29 0 -9 -11 -33 -25 -53 -14 -20 -25 -41 -25 -46 0 -5 -14 -30 -31 -55
-23 -35 -29 -54 -25 -72 5 -20 3 -25 -13 -25 -23 0 -42 -22 -33 -37 4 -6 24
-15 44 -21 31 -9 39 -7 54 9 14 16 15 23 5 48 -11 26 -9 38 28 117 23 49 46
100 53 113 15 28 38 39 38 18 0 -8 11 -31 26 -52 38 -57 30 -71 -39 -67 -35 3
-57 0 -57 -6 0 -19 22 -25 86 -25 48 0 64 -3 64 -13 0 -8 4 -14 9 -14 5 0 22
-25 37 -55 41 -85 86 -95 118 -28 18 39 20 36 -35 70 -25 15 -57 67 -149 238
-18 33 -38 65 -44 71 -13 14 -56 24 -72 17z"/>
<path d="M4673 3542 c-47 -64 -11 -91 58 -45 40 26 49 28 145 28 68 -1 107 -5
117 -14 9 -7 20 -10 25 -7 5 3 17 -3 27 -14 10 -11 29 -20 42 -20 19 0 23 5
23 28 0 16 -9 38 -20 49 -18 20 -27 21 -107 16 -102 -7 -102 -7 -208 2 l-80 7
-22 -30z"/>
<path d="M5127 3556 c-3 -8 4 -27 16 -42 19 -25 21 -40 21 -164 1 -117 -2
-139 -17 -154 -37 -37 -9 -72 50 -62 21 3 47 7 57 8 20 3 36 28 18 28 -24 0
-44 88 -39 160 4 38 3 70 -2 70 -5 0 -4 24 1 53 6 37 17 58 36 75 36 30 20 39
-68 41 -51 1 -69 -2 -73 -13z"/>
<path d="M5413 3562 c-23 -3 -34 -42 -12 -42 6 0 24 -9 40 -20 23 -17 32 -19
49 -10 16 8 19 17 14 33 -11 35 -40 47 -91 39z"/>
<path d="M5595 3560 c-36 -4 -40 -8 -37 -30 1 -14 9 -39 17 -56 10 -22 14 -66
14 -155 0 -68 2 -136 6 -151 8 -32 32 -42 67 -29 35 13 41 54 17 114 -19 47
-19 50 -2 69 17 19 17 20 0 30 -14 7 -16 13 -6 24 9 12 16 10 41 -11 35 -30
64 -32 77 -6 16 29 -11 45 -75 45 l-54 1 1 40 c1 22 6 45 11 52 15 19 5 55
-17 62 -11 4 -38 4 -60 1z"/>
<path d="M5856 3563 c-4 -4 -13 -8 -19 -9 -7 0 -20 -2 -29 -2 -28 -3 -22 -15
24 -50 47 -36 55 -38 82 -17 25 19 15 58 -19 73 -31 14 -30 14 -39 5z"/>
<path d="M5992 3537 c-42 -30 -47 -46 -20 -74 19 -21 22 -36 24 -121 1 -53 6
-108 12 -122 29 -75 121 -113 221 -91 29 6 57 9 62 5 5 -3 9 2 9 10 0 8 9 17
19 21 42 13 51 47 53 192 1 167 -5 206 -34 197 -21 -6 -58 -39 -58 -51 0 -3 7
-14 15 -23 18 -20 24 -150 11 -243 -9 -66 -22 -77 -101 -88 -61 -8 -83 2 -115
47 -22 33 -24 45 -26 182 -1 81 -2 149 -3 152 0 3 -9 10 -20 17 -15 9 -24 7
-49 -10z"/>
<path d="M6456 3545 c-9 -9 -24 -15 -33 -13 -27 5 -29 -39 -3 -60 12 -10 21
-30 22 -47 3 -70 -15 -232 -28 -252 -19 -31 -19 -31 32 -53 l45 -20 30 22 c27
21 39 48 20 48 -18 0 -35 123 -20 152 6 11 5 19 -2 24 -7 4 -9 35 -7 88 4 60
1 87 -10 104 -17 26 -25 27 -46 7z"/>
<path d="M1722 3508 c-19 -19 -15 -56 8 -63 11 -3 20 -11 20 -16 0 -5 11 -19
25 -31 l24 -21 -22 -28 c-70 -91 -71 -91 -60 -108 7 -10 24 -16 49 -16 21 0
44 -3 49 -6 6 -3 46 -3 90 2 48 5 84 4 91 -2 16 -13 61 5 61 25 0 37 -34 50
-128 50 -49 0 -89 4 -89 9 0 14 27 37 44 37 16 0 29 16 33 42 2 12 -7 20 -29
26 -17 4 -34 14 -36 20 -3 9 4 11 22 6 16 -4 32 -1 41 6 12 10 22 10 38 3 27
-13 72 -6 87 12 7 9 7 20 -1 38 -11 24 -13 24 -98 19 -118 -6 -173 -6 -191 2
-9 3 -21 1 -28 -6z"/>
<path d="M4860 3494 c-13 -15 -17 -54 -20 -219 -3 -113 5 -142 41 -147 34 -5
46 6 55 49 4 21 0 39 -11 57 -10 14 -15 35 -12 46 3 11 2 22 -1 24 -4 2 -5 41
-2 86 3 45 2 90 -2 101 -9 23 -31 25 -48 3z"/>
<path d="M2542 3458 c-7 -7 -12 -17 -12 -24 0 -19 -18 -21 -133 -19 -105 2
-109 1 -125 -23 -14 -22 -14 -25 1 -34 9 -5 17 -15 17 -21 0 -7 7 -22 15 -34
19 -27 52 -20 68 14 9 20 16 24 41 20 17 -3 39 0 49 5 13 7 25 1 54 -27 41
-40 38 -38 63 -25 34 18 14 180 -22 180 -2 0 -9 -5 -16 -12z"/>
<path d="M5266 3411 c-8 -13 4 -41 17 -41 6 0 18 -7 28 -16 25 -23 60 -10 56
21 -1 14 -6 27 -10 31 -10 11 -85 15 -91 5z"/>
<path d="M3105 3350 c3 -5 8 -10 11 -10 2 0 4 5 4 10 0 6 -5 10 -11 10 -5 0
-7 -4 -4 -10z"/>
<path d="M3060 3326 c0 -9 5 -16 10 -16 6 0 10 4 10 9 0 6 -4 13 -10 16 -5 3
-10 -1 -10 -9z"/>
<path d="M5469 3220 c-13 -11 -29 -24 -36 -30 -7 -5 -19 -10 -28 -10 -16 0
-32 -26 -22 -36 9 -9 79 -14 104 -7 13 3 29 18 37 33 12 25 12 31 -1 49 -18
26 -24 26 -54 1z"/>
<path d="M6718 3199 c-18 -19 -36 -34 -40 -34 -14 0 -32 -25 -24 -32 4 -5 28
-7 53 -6 60 2 91 30 78 69 -14 39 -31 40 -67 3z"/>
<path d="M1794 3166 c-23 -17 -48 -35 -57 -41 -22 -14 -32 -189 -11 -206 11
-9 18 -8 30 1 22 19 179 21 232 3 24 -8 46 -12 49 -10 11 11 23 85 23 143 0
63 -11 84 -43 84 -11 0 -32 11 -48 24 -17 14 -36 22 -47 19 -11 -2 -35 -1 -53
4 -30 9 -39 6 -75 -21z m81 -55 c12 -5 26 -4 34 3 11 8 17 6 29 -12 8 -12 23
-22 34 -22 16 0 19 -6 16 -37 l-3 -38 -60 2 c-33 1 -69 2 -80 3 -11 1 -30 -1
-42 -3 -21 -5 -23 -2 -23 33 0 32 5 41 33 59 36 23 34 23 62 12z"/>
<path d="M748 3184 c-3 -3 -19 -6 -36 -6 -50 -2 -76 -29 -74 -79 4 -117 7
-142 22 -147 8 -3 26 -16 39 -29 23 -22 25 -22 43 -7 23 22 23 24 -9 59 -16
16 -27 32 -26 36 1 3 3 27 4 52 3 44 4 47 31 47 15 0 29 -4 29 -10 3 -19 5
-25 18 -48 12 -22 14 -23 31 -7 10 9 20 27 22 38 2 16 11 22 35 23 29 1 31 -1
38 -42 7 -52 0 -84 -21 -84 -8 0 -19 -12 -24 -26 -8 -21 -6 -29 12 -43 21 -18
23 -18 42 0 11 11 26 19 33 19 22 0 30 33 28 110 -3 121 -2 120 -28 120 -13 0
-32 7 -43 15 -23 18 -76 19 -92 3 -9 -9 -15 -9 -24 0 -13 13 -41 16 -50 6z"/>
<path d="M190 3136 c0 -8 4 -17 9 -20 5 -4 7 3 4 14 -6 23 -13 26 -13 6z"/>
<path d="M3015 3110 c-3 -5 -1 -10 4 -10 6 0 11 5 11 10 0 6 -2 10 -4 10 -3 0
-8 -4 -11 -10z"/>
<path d="M3006 3063 c-6 -14 -5 -15 5 -6 7 7 10 15 7 18 -3 3 -9 -2 -12 -12z"/>
<path d="M3642 3036 c-31 -7 -42 -13 -40 -25 3 -12 17 -16 63 -17 121 -1 161
-46 156 -177 -2 -63 -35 -131 -58 -122 -7 2 -13 1 -13 -4 0 -14 -53 -35 -95
-37 -36 -3 -43 1 -62 29 -20 29 -22 44 -22 172 1 157 -4 185 -33 185 -23 0
-78 -36 -78 -51 0 -5 9 -22 20 -37 16 -22 20 -47 22 -145 3 -115 2 -119 -21
-136 -15 -12 -22 -24 -18 -34 5 -12 23 -16 89 -17 46 0 92 -1 103 -1 53 -1
118 11 140 25 13 9 29 16 35 16 5 0 10 4 10 8 0 5 8 17 18 28 44 47 54 74 56
145 0 42 -4 73 -10 77 -7 4 -13 16 -15 27 -2 11 -14 24 -27 30 -12 5 -22 15
-22 22 0 6 -5 15 -12 19 -7 4 -8 3 -4 -4 11 -18 -2 -14 -35 10 -33 25 -78 29
-147 14z"/>
<path d="M3915 3034 c-15 -15 -14 -18 5 -36 16 -15 20 -27 15 -49 -4 -16 -3
-34 1 -41 5 -7 9 -53 10 -103 2 -68 -2 -100 -16 -129 -13 -30 -15 -42 -6 -51
16 -16 86 -16 118 1 l28 14 -23 26 c-20 23 -22 37 -23 144 -1 64 -4 123 -8
129 -4 6 -2 11 3 11 6 0 11 6 11 13 0 6 9 23 20 37 27 35 25 43 -10 38 -17 -3
-33 -1 -36 4 -9 14 -72 9 -89 -8z"/>
<path d="M4487 3044 c-9 -9 3 -57 17 -66 10 -7 -69 -179 -86 -186 -5 -2 -8
-11 -8 -21 0 -9 -16 -41 -35 -71 -19 -30 -35 -60 -35 -66 0 -23 70 -33 99 -15
11 7 11 15 0 45 -12 33 -11 40 14 90 15 29 27 60 27 68 0 8 9 23 19 32 11 10
22 29 25 42 11 40 26 27 68 -58 18 -37 10 -47 -36 -46 -24 0 -49 -3 -55 -6
-23 -15 1 -24 61 -24 63 1 63 1 95 -43 18 -24 33 -49 33 -55 0 -12 54 -54 69
-54 5 0 17 10 25 22 l16 22 22 -20 c21 -18 36 -20 148 -18 122 1 162 9 191 36
8 7 23 18 33 23 9 6 31 34 47 64 25 46 30 63 27 112 -1 33 -6 59 -10 59 -4 0
-14 15 -23 34 -16 33 -79 86 -103 86 -7 0 -12 4 -12 9 0 17 -120 3 -149 -16
l-26 -18 60 -5 c88 -8 131 -37 159 -110 12 -29 15 -56 11 -80 -9 -50 -38 -109
-53 -110 -7 0 -16 -8 -20 -17 -7 -18 -13 -20 -61 -30 -14 -2 -29 -6 -33 -9 -5
-3 -22 -1 -37 5 -42 18 -52 61 -50 213 2 166 3 155 -22 168 -17 9 -27 7 -55
-12 -38 -26 -41 -34 -18 -59 23 -25 30 -275 8 -283 -10 -4 -18 1 -21 14 -3 11
-9 20 -13 20 -12 0 -80 68 -80 79 0 6 -4 11 -9 11 -5 0 -13 10 -17 22 -3 12
-26 55 -50 96 -24 40 -44 77 -44 81 0 4 -10 17 -23 29 -22 21 -76 30 -90 16z"/>
<path d="M4170 3025 c0 -17 67 -65 91 -65 29 0 44 27 31 55 -10 22 -18 25 -67
25 -42 0 -55 -4 -55 -15z"/>
<path d="M3090 3005 c0 -8 4 -15 10 -15 5 0 7 7 4 15 -4 8 -8 15 -10 15 -2 0
-4 -7 -4 -15z"/>
<path d="M3031 2974 c0 -11 3 -14 6 -6 3 7 2 16 -1 19 -3 4 -6 -2 -5 -13z"/>
<path d="M3023 2915 c-3 -9 -3 -18 -1 -21 3 -3 8 4 11 16 6 23 -1 27 -10 5z"/>
<path d="M4080 2899 c0 -6 -9 -9 -20 -6 -11 3 -22 2 -24 -2 -5 -7 29 -41 40
-41 3 0 12 -7 20 -15 21 -21 41 -19 54 5 9 16 7 24 -5 36 -8 8 -15 12 -15 9 0
-4 -11 0 -25 9 -16 10 -25 12 -25 5z"/>
<path d="M1918 2872 c-10 -2 -18 -7 -18 -12 0 -4 -15 -13 -32 -21 -18 -7 -45
-22 -59 -33 -15 -12 -41 -29 -58 -38 -35 -19 -42 -55 -13 -65 9 -3 47 -25 83
-49 83 -55 103 -62 164 -57 66 4 75 8 75 33 0 24 -37 42 -62 29 -21 -11 -28 8
-29 80 -2 56 8 71 47 71 28 0 43 20 34 45 -6 17 -16 20 -61 20 -30 0 -62 -1
-71 -3z m-18 -137 c0 -40 -11 -43 -46 -16 l-24 19 23 15 c35 25 47 21 47 -18z"/>
<path d="M2760 2826 c0 -31 6 -34 13 -6 3 11 1 23 -4 26 -5 3 -9 -6 -9 -20z"/>
<path d="M944 2827 c-3 -9 -12 -17 -20 -17 -8 0 -14 -8 -14 -19 0 -14 -8 -18
-37 -18 -21 0 -67 -2 -103 -3 -36 -2 -73 1 -83 5 -27 11 -51 -16 -43 -49 3
-14 12 -23 19 -21 6 3 20 -8 29 -25 21 -36 45 -39 59 -6 9 19 20 25 58 28 55
5 91 -1 91 -14 0 -15 23 -33 48 -35 14 -2 22 3 22 12 0 8 3 15 8 15 13 0 2
134 -13 149 -12 13 -15 12 -21 -2z"/>
<path d="M5433 2803 c-13 -3 -26 -16 -32 -35 -13 -38 -14 -53 -1 -98 7 -27 18
-39 50 -53 44 -19 90 -23 90 -7 0 6 6 10 14 10 21 0 56 49 56 78 0 30 -35 88
-60 102 -18 10 -74 11 -117 3z m12 -101 c-5 -14 -7 -14 -15 -2 -5 9 -4 20 3
28 14 17 22 0 12 -26z m123 11 c-5 -25 -28 -28 -28 -4 0 12 6 21 16 21 9 0 14
-7 12 -17z"/>
<path d="M3042 2740 c-18 -29 -15 -38 4 -12 9 13 14 25 12 27 -2 2 -9 -5 -16
-15z"/>
<path d="M3115 2720 c3 -5 8 -10 11 -10 2 0 4 5 4 10 0 6 -5 10 -11 10 -5 0
-7 -4 -4 -10z"/>
<path d="M2456 2705 c-9 -9 -16 -20 -16 -25 0 -15 43 -40 67 -40 13 0 32 -6
43 -12 16 -10 23 -10 36 4 33 33 -6 75 -76 84 -26 3 -43 0 -54 -11z"/>
<path d="M4250 2700 c0 -5 -18 -20 -40 -32 -22 -13 -40 -28 -40 -34 0 -7 21
-15 46 -19 34 -5 52 -2 70 10 30 20 46 55 32 73 -12 14 -68 16 -68 2z"/>
<path d="M3080 2653 c0 -10 4 -14 8 -8 4 6 11 13 16 18 5 4 2 7 -7 7 -10 0
-17 -8 -17 -17z"/>
<path d="M3062 2590 c0 -14 2 -19 5 -12 2 6 2 18 0 25 -3 6 -5 1 -5 -13z"/>
<path d="M2995 2570 c3 -5 8 -10 11 -10 2 0 4 5 4 10 0 6 -5 10 -11 10 -5 0
-7 -4 -4 -10z"/>
<path d="M826 2552 c-13 -14 -20 -14 -36 -4 -24 15 -50 16 -50 1 0 -5 -5 -7
-10 -4 -6 3 -13 -1 -16 -9 -4 -11 -14 -13 -34 -10 -37 8 -44 -6 -41 -85 5
-118 7 -136 15 -149 11 -19 92 -16 100 4 7 18 -10 44 -28 44 -16 0 -18 111 -2
133 21 27 59 2 44 -28 -2 -2 7 -11 19 -20 31 -22 53 -9 53 31 0 29 4 34 23 34
38 0 47 -14 51 -81 4 -63 4 -65 -24 -77 -21 -10 -27 -18 -23 -32 11 -42 76
-34 114 14 15 18 15 22 3 29 -11 6 -12 12 -4 22 7 9 8 26 1 56 -6 24 -6 46 -2
49 11 7 -3 42 -22 58 -8 7 -29 14 -46 15 -17 1 -31 5 -31 8 0 15 -39 15 -54 1z"/>
<path d="M2421 2524 c-21 -20 -24 -33 -23 -79 1 -30 -2 -56 -6 -59 -4 -2 -25
13 -47 35 -43 44 -47 45 -65 24 -19 -23 27 -85 86 -115 27 -14 60 -35 74 -48
29 -25 73 -25 127 2 38 20 41 27 36 96 -2 30 -4 68 -4 84 0 36 -15 66 -34 66
-8 0 -15 5 -15 10 0 6 -23 10 -52 9 -42 -1 -58 -6 -77 -25z m96 -52 c19 -12
23 -130 6 -137 -24 -8 -55 14 -50 36 3 10 1 22 -4 25 -7 4 -7 56 0 82 2 5 37
1 48 -6z"/>
<path d="M3121 2454 c0 -11 3 -14 6 -6 3 7 2 16 -1 19 -3 4 -6 -2 -5 -13z"/>
<path d="M3419 2343 c-5 -14 -8 -74 -7 -132 3 -101 4 -106 26 -109 26 -4 35
13 36 72 2 79 56 40 56 -41 0 -26 25 -42 42 -25 11 11 22 193 13 230 -4 15
-13 22 -29 22 -25 0 -36 -17 -36 -56 0 -13 -2 -24 -4 -24 -2 0 -11 -3 -20 -6
-11 -4 -17 4 -22 33 -11 65 -37 82 -55 36z"/>
<path d="M3688 2363 c-15 -4 -31 -31 -34 -58 -4 -36 -18 -92 -26 -102 -6 -7
-8 -26 -6 -43 3 -16 1 -30 -4 -30 -4 0 -8 -4 -8 -10 0 -5 11 -10 24 -10 17 0
29 9 38 27 7 15 16 26 21 25 4 -1 16 -2 27 -2 11 0 20 -6 20 -13 0 -7 6 -22
14 -32 12 -16 16 -17 30 -6 17 14 17 15 -9 139 -9 42 -18 87 -21 100 -4 22
-24 26 -66 15z m32 -124 c0 -5 -4 -9 -10 -9 -5 0 -10 7 -10 16 0 8 5 12 10 9
6 -3 10 -10 10 -16z"/>
<path d="M3847 2351 c-10 -11 -14 -48 -14 -118 -1 -88 2 -104 18 -119 23 -20
32 -14 32 21 0 14 3 28 8 31 4 2 6 11 2 19 -3 8 0 15 6 15 6 0 12 -9 12 -20 3
-39 18 -80 29 -80 5 0 17 16 26 35 16 34 34 39 34 9 0 -9 6 -21 13 -29 21 -21
42 0 43 43 0 21 4 43 7 49 4 6 3 22 -2 36 -5 14 -7 34 -4 46 10 39 -5 69 -39
76 -37 9 -58 -12 -58 -56 0 -32 -26 -47 -35 -19 -4 11 -4 24 -1 28 9 14 -20
45 -43 47 -11 1 -27 -5 -34 -14z m158 -161 c3 -5 1 -10 -4 -10 -6 0 -11 5 -11
10 0 6 2 10 4 10 3 0 8 -4 11 -10z"/>
<path d="M4115 2359 c-8 -11 -10 -200 -3 -229 10 -43 44 -31 52 19 7 48 26 65
64 56 29 -6 29 -5 34 40 7 56 -9 102 -36 110 -47 13 -104 16 -111 4z m76 -92
c-14 -14 -26 17 -16 41 6 15 8 14 16 -7 6 -16 6 -28 0 -34z"/>
<path d="M4277 2352 c-8 -11 -5 -18 13 -33 14 -10 28 -19 33 -19 4 0 7 -37 7
-83 0 -96 13 -127 44 -104 16 12 19 27 18 106 -1 72 2 93 13 96 51 16 50 15
33 31 -20 20 -145 25 -161 6z"/>
<path d="M4807 2355 c-9 -9 -17 -27 -17 -41 0 -34 -15 -30 -40 11 -15 24 -29
35 -45 35 -32 0 -35 -8 -37 -87 0 -37 -5 -76 -10 -85 -5 -10 -4 -19 2 -23 5
-3 10 -14 10 -24 0 -10 7 -24 15 -31 25 -20 45 5 45 56 0 24 5 44 10 44 6 0
10 -7 10 -15 0 -34 46 -95 71 -95 22 0 28 28 28 146 0 105 -13 139 -42 109z
m-17 -85 c0 -5 -4 -10 -10 -10 -5 0 -10 5 -10 10 0 6 5 10 10 10 6 0 10 -4 10
-10z"/>
<path d="M5070 2357 c0 -6 -3 -8 -6 -4 -3 3 -15 -3 -26 -13 -14 -13 -22 -35
-24 -72 -2 -29 -6 -58 -8 -65 -9 -24 19 -86 47 -103 24 -15 34 -16 68 -6 22 7
44 18 49 26 8 13 5 68 -4 77 -9 9 -45 -17 -51 -38 -4 -12 -14 -19 -23 -17 -25
5 -30 145 -6 155 10 4 22 -1 30 -11 20 -28 48 -16 52 21 2 25 -2 34 -20 44
-29 16 -78 19 -78 6z"/>
<path d="M5236 2346 c-27 -21 -29 -28 -30 -89 -1 -37 -4 -67 -8 -67 -6 0 2
-30 22 -85 16 -44 134 -24 157 27 4 10 5 58 2 105 -5 79 -8 89 -32 107 -38 28
-77 29 -111 2z m78 -58 c13 -65 14 -88 6 -93 -6 -3 -10 -15 -10 -25 0 -28 -17
-33 -30 -9 -17 31 -16 129 1 140 22 14 28 11 33 -13z"/>
<path d="M5719 2347 c-48 -32 -48 -70 0 -116 20 -19 39 -34 43 -33 4 1 10 -8
13 -19 9 -28 -8 -45 -25 -24 -7 8 -9 15 -5 15 4 0 2 6 -4 14 -7 8 -21 12 -31
9 -28 -7 -27 -63 0 -88 23 -21 103 -26 121 -8 15 15 24 93 11 93 -6 0 -14 10
-18 23 -3 12 -21 34 -38 49 -24 20 -28 29 -19 38 8 9 14 7 22 -9 14 -25 36
-28 45 -5 3 8 10 13 15 9 5 -3 3 9 -6 26 -8 17 -20 32 -27 34 -49 15 -66 13
-97 -8z"/>
<path d="M4493 2353 c-7 -2 -13 -13 -13 -22 0 -10 -3 -21 -7 -25 -12 -11 -10
-149 2 -162 6 -7 19 -24 29 -38 22 -31 37 -32 74 -9 46 30 51 43 52 134 0 105
-16 129 -83 128 -23 0 -48 -3 -54 -6z m73 -55 c8 -13 6 -113 -2 -141 -3 -10
-13 -17 -22 -15 -12 2 -17 17 -19 68 -1 36 0 73 3 83 6 19 29 23 40 5z"/>
<path d="M5605 2346 c-15 -11 -17 -29 -17 -124 0 -61 3 -116 7 -122 9 -14 41
-13 52 3 5 6 8 63 7 126 0 90 -4 115 -16 122 -9 5 -22 3 -33 -5z"/>
<path d="M5892 2343 c-5 -10 -8 -66 -7 -124 2 -129 10 -143 80 -135 25 3 55
11 67 17 17 9 18 13 6 25 -7 7 -29 15 -48 17 -58 7 -51 62 8 62 20 0 27 5 27
20 0 15 -8 21 -35 25 -40 6 -53 34 -21 45 12 3 25 4 31 0 10 -6 50 29 50 45 0
6 -26 10 -59 10 -33 0 -66 3 -74 6 -9 3 -19 -2 -25 -13z"/>
<path d="M6328 2344 c-25 -13 -28 -21 -30 -67 0 -29 0 -59 1 -67 1 -8 2 -32 2
-53 -1 -50 17 -79 41 -66 13 7 18 22 18 52 l1 42 14 -39 c7 -21 18 -43 23 -48
16 -16 40 3 48 40 5 26 8 31 11 17 10 -48 25 -75 38 -65 6 5 14 8 17 5 7 -7
19 111 13 127 -3 7 -6 40 -7 72 l-3 59 -33 1 c-30 1 -44 -7 -48 -24 -5 -30
-18 -60 -24 -60 -5 0 -12 15 -15 33 -7 32 -22 57 -34 57 -3 -1 -18 -8 -33 -16z"/>
<path d="M2980 2340 c0 -5 5 -10 11 -10 5 0 7 5 4 10 -3 6 -8 10 -11 10 -2 0
-4 -4 -4 -10z"/>
<path d="M5417 2308 c-7 -56 -3 -190 7 -206 10 -17 136 -14 136 3 0 17 -27 39
-51 40 -10 1 -22 4 -25 8 -3 3 -7 48 -8 99 -1 93 -1 93 -27 96 -24 3 -27 -1
-32 -40z"/>
<path d="M6076 2342 c-2 -4 -3 -52 -2 -107 3 -135 23 -165 101 -151 59 11 73
42 72 153 -2 79 -5 98 -19 107 -28 17 -36 -2 -39 -89 -4 -106 -7 -117 -33
-113 -12 2 -20 9 -18 18 9 38 -6 173 -20 182 -17 10 -35 10 -42 0z"/>
<path d="M3042 2265 c0 -16 2 -22 5 -12 2 9 2 23 0 30 -3 6 -5 -1 -5 -18z"/>
<path d="M1015 2250 c9 -31 25 -50 25 -29 0 7 -8 23 -16 34 -16 19 -16 19 -9
-5z"/>
<path d="M3115 2260 c-3 -5 -1 -10 4 -10 6 0 11 5 11 10 0 6 -2 10 -4 10 -3 0
-8 -4 -11 -10z"/>
<path d="M657 2228 c-23 -18 -30 -254 -7 -268 8 -6 21 -8 28 -5 8 3 18 5 23 5
5 0 9 34 8 76 -1 73 5 98 19 79 4 -6 25 -16 47 -23 22 -8 59 -27 83 -44 24
-17 46 -27 49 -24 3 3 11 2 17 -3 22 -16 56 -20 56 -5 0 8 7 14 16 14 13 0 11
5 -7 25 -13 13 -32 25 -41 25 -9 0 -29 10 -45 23 -15 13 -47 31 -70 41 -24 11
-43 22 -43 26 0 3 -15 11 -34 18 -18 7 -41 21 -51 32 -21 23 -26 24 -48 8z"/>
<path d="M2345 2230 c-35 -8 -75 -28 -75 -38 0 -4 -2 -49 -4 -99 -2 -51 0 -93
4 -93 5 0 18 -11 31 -24 31 -32 64 -24 54 13 -4 14 -8 58 -9 96 -1 63 1 70 19
73 11 1 36 -11 55 -27 29 -25 33 -32 24 -48 -14 -23 -6 -93 11 -93 6 0 20 -9
30 -20 21 -24 88 -25 107 -2 17 20 18 240 1 254 -7 6 -25 7 -39 4 -23 -6 -26
-11 -21 -39 2 -18 1 -40 -2 -51 -7 -17 -8 -17 -23 -2 -9 9 -21 16 -27 16 -6 0
-16 10 -22 23 -24 44 -70 67 -114 57z m188 -162 c-8 -46 -13 -48 -13 -5 0 21
4 37 10 37 5 0 7 -14 3 -32z"/>
<path d="M3026 2181 c-21 -23 -15 -64 6 -43 7 7 22 12 35 12 13 0 23 5 23 11
0 6 -7 8 -15 5 -10 -4 -19 2 -23 15 l-8 20 -18 -20z m14 -21 c0 -5 -4 -10 -10
-10 -5 0 -10 5 -10 10 0 6 5 10 10 10 6 0 10 -4 10 -10z"/>
<path d="M2871 2174 c0 -11 3 -14 6 -6 3 7 2 16 -1 19 -3 4 -6 -2 -5 -13z"/>
<path d="M2977 2183 c-4 -3 -7 -11 -7 -17 0 -6 5 -5 12 2 6 6 9 14 7 17 -3 3
-9 2 -12 -2z"/>
<path d="M3040 2118 c0 -10 9 -22 20 -28 17 -9 20 -8 20 12 0 17 -3 19 -9 9
-7 -11 -11 -10 -20 5 -9 17 -10 17 -11 2z"/>
<path d="M86 2103 c-6 -14 -5 -15 5 -6 7 7 10 15 7 18 -3 3 -9 -2 -12 -12z"/>
<path d="M190 2114 c0 -10 28 -33 33 -27 3 3 0 12 -8 19 -14 15 -25 18 -25 8z"/>
<path d="M1042 2090 c0 -14 2 -19 5 -12 2 6 2 18 0 25 -3 6 -5 1 -5 -13z"/>
<path d="M3000 2100 c0 -5 5 -10 10 -10 6 0 10 5 10 10 0 6 -4 10 -10 10 -5 0
-10 -4 -10 -10z"/>
<path d="M1357 2083 c-10 -10 -8 -33 2 -33 6 0 9 9 8 20 -1 23 -1 22 -10 13z"/>
<path d="M2726 2053 c-6 -14 -5 -15 5 -6 7 7 10 15 7 18 -3 3 -9 -2 -12 -12z"/>
<path d="M1095 2050 c3 -5 8 -10 11 -10 2 0 4 5 4 10 0 6 -5 10 -11 10 -5 0
-7 -4 -4 -10z"/>
<path d="M1030 2040 c0 -5 5 -10 10 -10 6 0 10 5 10 10 0 6 -4 10 -10 10 -5 0
-10 -4 -10 -10z"/>
<path d="M2000 2035 c-18 -21 -3 -55 25 -55 27 0 38 29 20 53 -15 21 -29 22
-45 2z"/>
<path d="M3091 2034 c0 -11 3 -14 6 -6 3 7 2 16 -1 19 -3 4 -6 -2 -5 -13z"/>
<path d="M1151 2024 c0 -11 3 -14 6 -6 3 7 2 16 -1 19 -3 4 -6 -2 -5 -13z"/>
<path d="M1210 2030 c0 -5 5 -10 11 -10 5 0 7 5 4 10 -3 6 -8 10 -11 10 -2 0
-4 -4 -4 -10z"/>
<path d="M165 2020 c-3 -5 -1 -10 4 -10 6 0 11 5 11 10 0 6 -2 10 -4 10 -3 0
-8 -4 -11 -10z"/>
<path d="M4366 2021 c-4 -6 -22 -9 -41 -7 -46 3 -57 -25 -23 -57 22 -20 25
-32 26 -107 2 -90 9 -106 40 -96 18 6 21 15 20 79 -1 118 0 123 27 135 29 13
33 37 8 45 -10 2 -25 8 -34 12 -10 3 -20 2 -23 -4z"/>
<path d="M1044 2008 c-5 -7 -2 -8 6 -3 9 6 12 4 8 -7 -4 -9 0 -15 8 -15 8 0
14 6 14 13 0 16 -28 26 -36 12z"/>
<path d="M3418 2003 c-7 -8 -10 -50 -9 -108 2 -132 20 -173 54 -124 10 13 13
34 10 60 -5 37 -4 39 21 39 14 0 26 -6 27 -12 2 -46 11 -94 19 -102 18 -18 40
3 41 41 0 21 1 75 2 121 2 86 -6 108 -37 96 -11 -4 -16 -19 -16 -51 0 -42 -1
-44 -27 -41 -20 2 -28 9 -29 24 -3 64 -28 90 -56 57z"/>
<path d="M3677 2007 c-17 -12 -61 -163 -51 -178 2 -4 0 -10 -4 -13 -8 -5 -9
-25 -3 -58 3 -17 28 -6 51 22 29 35 51 33 69 -6 9 -20 17 -25 39 -22 30 3 31
11 13 93 -7 28 -13 57 -15 65 -2 8 -8 28 -15 43 -6 16 -11 33 -11 38 0 5 -12
14 -26 19 -31 12 -27 12 -47 -3z m33 -116 c0 -11 -4 -23 -10 -26 -6 -4 -10 5
-10 19 0 14 5 26 10 26 6 0 10 -9 10 -19z"/>
<path d="M3844 2002 c-6 -9 -11 -62 -10 -119 1 -83 4 -106 18 -120 23 -23 32
-11 33 43 0 24 3 44 8 44 4 0 7 -9 7 -20 0 -27 27 -80 41 -80 6 0 13 9 16 20
3 11 9 20 14 20 5 0 9 11 9 25 0 14 5 25 10 25 6 0 10 -20 10 -45 0 -38 3 -45
20 -45 27 0 37 25 39 100 2 103 -8 159 -27 158 -10 0 -25 3 -34 7 -14 5 -20 0
-29 -21 -6 -16 -12 -41 -12 -57 0 -24 -2 -26 -16 -12 -9 8 -18 26 -19 42 -3
32 -8 38 -42 46 -18 5 -29 1 -36 -11z"/>
<path d="M4120 2000 c-17 -15 -19 -24 -12 -82 5 -36 5 -73 2 -83 -10 -29 1
-75 21 -86 16 -8 21 -5 29 17 6 15 8 35 5 44 -7 21 22 53 41 46 7 -3 22 6 34
21 26 34 25 96 -4 120 -28 24 -90 25 -116 3z m90 -82 c0 -12 -28 -10 -35 2 -4
6 -4 19 0 28 6 16 8 15 21 -2 8 -11 14 -23 14 -28z"/>
<path d="M4509 2013 c-21 -5 -50 -71 -45 -103 2 -14 7 -50 11 -80 11 -84 25
-96 113 -88 15 2 22 9 22 24 0 13 7 30 16 38 9 9 12 21 7 28 -4 7 -6 38 -5 68
2 45 -2 60 -20 81 -23 26 -68 41 -99 32z m59 -124 c1 -41 -3 -68 -15 -85 -22
-34 -33 -15 -33 59 0 109 45 133 48 26z"/>
<path d="M4679 1998 c-15 -27 -21 -132 -13 -200 5 -38 10 -48 25 -48 23 0 39
29 40 72 0 33 0 33 27 -19 27 -54 43 -67 72 -58 14 4 17 22 18 121 1 90 -2
120 -14 131 -29 29 -39 13 -45 -74 -2 -30 -19 -38 -19 -8 0 7 -11 33 -25 56
-14 24 -25 40 -25 35 0 -5 -6 -3 -14 3 -12 10 -17 8 -27 -11z"/>
<path d="M217 1989 c4 -13 8 -18 11 -10 2 7 -1 18 -6 23 -8 8 -9 4 -5 -13z"/>
<path d="M5122 1976 c0 -17 4 -38 8 -46 5 -8 10 -35 13 -60 11 -100 26 -130
62 -130 29 0 41 15 49 64 4 21 14 48 21 60 8 12 14 30 13 41 0 11 2 36 6 56 9
41 -3 56 -33 40 -22 -12 -31 -32 -38 -81 -6 -41 -8 -44 -22 -35 -6 3 -11 21
-11 38 0 44 -21 80 -47 82 -18 1 -21 -4 -21 -29z"/>
<path d="M5351 1993 c-16 -32 -32 -97 -37 -152 -2 -30 -9 -60 -15 -67 -8 -9
-5 -16 11 -24 24 -13 28 -11 44 22 15 29 48 30 61 0 10 -24 38 -37 55 -27 14
9 12 46 -5 95 -8 24 -16 61 -17 82 -2 66 -72 117 -97 71z m45 -131 c-11 -10
-15 4 -8 28 l7 25 3 -23 c2 -13 1 -26 -2 -30z"/>
<path d="M300 1990 c0 -5 5 -10 10 -10 6 0 10 5 10 10 0 6 -4 10 -10 10 -5 0
-10 -4 -10 -10z"/>
<path d="M2763 1972 c1 -14 5 -18 11 -12 7 7 6 14 -1 21 -9 9 -12 7 -10 -9z"/>
<path d="M1100 1965 c-7 -9 -8 -15 -2 -15 5 0 12 7 16 15 3 8 4 15 2 15 -2 0
-9 -7 -16 -15z"/>
<path d="M1021 1944 c0 -11 3 -14 6 -6 3 7 2 16 -1 19 -3 4 -6 -2 -5 -13z"/>
<path d="M2725 1950 c3 -5 8 -10 11 -10 2 0 4 5 4 10 0 6 -5 10 -11 10 -5 0
-7 -4 -4 -10z"/>
<path d="M217 1928 c-9 -31 -2 -33 11 -3 6 14 8 25 3 25 -5 0 -11 -10 -14 -22z"/>
<path d="M1471 1934 c0 -11 3 -14 6 -6 3 7 2 16 -1 19 -3 4 -6 -2 -5 -13z"/>
<path d="M1723 1904 c-2 -7 -3 -23 -1 -36 3 -22 8 -23 82 -25 82 -3 115 -16
96 -39 -6 -7 -28 -15 -48 -19 -26 -4 -53 -22 -91 -57 -48 -46 -53 -54 -44 -77
6 -18 15 -25 29 -23 44 7 102 4 122 -7 15 -8 23 -8 28 0 3 6 18 9 33 6 15 -3
45 -3 68 0 34 4 43 10 48 30 10 40 -7 49 -83 47 -89 -2 -106 7 -61 35 19 12
37 21 42 21 11 0 67 56 67 67 0 6 9 13 20 16 25 6 36 34 23 55 -8 14 -36 16
-167 18 -120 1 -159 -2 -163 -12z"/>
<path d="M2996 1911 c-4 -6 -2 -11 3 -11 6 0 11 -11 11 -24 0 -14 5 -28 10
-31 7 -4 8 3 4 22 -10 42 -20 58 -28 44z"/>
<path d="M2766 1897 c3 -10 9 -15 12 -12 3 3 0 11 -7 18 -10 9 -11 8 -5 -6z"/>
<path d="M256 1867 c3 -10 9 -15 12 -12 3 3 0 11 -7 18 -10 9 -11 8 -5 -6z"/>
<path d="M2742 1860 c0 -14 2 -19 5 -12 2 6 2 18 0 25 -3 6 -5 1 -5 -13z"/>
<path d="M3041 1864 c0 -11 3 -14 6 -6 3 7 2 16 -1 19 -3 4 -6 -2 -5 -13z"/>
<path d="M180 1820 c0 -5 5 -10 11 -10 5 0 7 5 4 10 -3 6 -8 10 -11 10 -2 0
-4 -4 -4 -10z"/>
<path d="M300 1791 c0 -6 5 -13 10 -16 6 -3 10 1 10 9 0 9 -4 16 -10 16 -5 0
-10 -4 -10 -9z"/>
<path d="M1255 1781 c-3 -5 -1 -12 5 -16 5 -3 10 1 10 9 0 18 -6 21 -15 7z"/>
<path d="M4907 1783 c-13 -3 -16 -10 -12 -21 4 -10 10 -25 12 -34 7 -23 15
-23 30 1 11 18 7 62 -6 60 -3 -1 -14 -3 -24 -6z"/>
<path d="M3120 1770 c0 -5 5 -10 11 -10 5 0 7 5 4 10 -3 6 -8 10 -11 10 -2 0
-4 -4 -4 -10z"/>
<path d="M75 1740 c3 -5 8 -10 11 -10 2 0 4 5 4 10 0 6 -5 10 -11 10 -5 0 -7
-4 -4 -10z"/>
<path d="M3102 1704 c-7 -8 -8 -14 -3 -14 10 0 25 19 20 25 -2 1 -10 -3 -17
-11z"/>
<path d="M245 1669 c-4 -6 -5 -12 -2 -15 2 -3 7 2 10 11 7 17 1 20 -8 4z"/>
<path d="M3026 1623 c-6 -14 -5 -15 5 -6 7 7 10 15 7 18 -3 3 -9 -2 -12 -12z"/>
<path d="M3120 1630 c0 -5 5 -10 10 -10 6 0 10 5 10 10 0 6 -4 10 -10 10 -5 0
-10 -4 -10 -10z"/>
<path d="M3057 1613 c-4 -3 -7 -11 -7 -17 0 -6 5 -5 12 2 6 6 9 14 7 17 -3 3
-9 2 -12 -2z"/>
<path d="M5 1600 c3 -5 8 -10 11 -10 2 0 4 5 4 10 0 6 -5 10 -11 10 -5 0 -7
-4 -4 -10z"/>
<path d="M2003 1588 c-14 -19 -34 -79 -28 -88 3 -4 6 -28 6 -53 2 -47 -15 -77
-45 -77 -17 0 -18 6 -16 92 1 48 -2 58 -20 68 -36 19 -50 -3 -50 -81 l0 -69
-29 0 c-22 0 -32 6 -38 23 -8 23 -9 31 -11 114 -2 42 -6 53 -22 58 -23 7 -53
-12 -44 -27 4 -6 6 -59 6 -119 -1 -74 3 -111 11 -116 7 -4 71 -9 142 -10 138
-3 153 -4 173 -16 14 -10 14 -13 17 150 1 115 0 124 -20 143 -17 16 -24 18
-32 8z"/>
<path d="M135 1580 c-3 -5 -1 -10 4 -10 6 0 11 5 11 10 0 6 -2 10 -4 10 -3 0
-8 -4 -11 -10z"/>
<path d="M3006 1581 c-3 -5 1 -14 8 -20 12 -10 13 -8 9 8 -6 23 -9 25 -17 12z"/>
<path d="M2355 1572 c-11 -2 -24 -8 -29 -13 -6 -5 -20 -9 -32 -9 -12 0 -24 -6
-26 -12 -6 -15 0 -127 7 -146 2 -7 0 -23 -5 -36 -7 -19 -5 -25 13 -34 35 -17
118 -23 133 -11 11 9 20 7 38 -5 14 -9 27 -12 30 -7 3 5 28 7 56 6 46 -3 51
-1 56 22 9 34 -6 44 -66 47 -52 3 -70 14 -70 47 0 9 7 22 15 29 8 7 15 10 15
6 0 -3 15 3 33 14 17 11 42 24 55 30 23 10 28 35 13 59 -8 12 -18 9 -61 -13
-56 -29 -66 -28 -135 18 -11 7 -29 11 -40 8z m43 -151 c-3 -39 -6 -46 -23 -43
-10 2 -25 11 -32 20 -15 19 -10 76 9 99 11 13 14 12 31 -8 13 -16 17 -35 15
-68z"/>
<path d="M2790 1544 c0 -7 27 -34 34 -34 4 0 1 9 -6 20 -12 19 -28 27 -28 14z"/>
<path d="M200 1529 c0 -5 5 -7 10 -4 6 3 10 8 10 11 0 2 -4 4 -10 4 -5 0 -10
-5 -10 -11z"/>
<path d="M2890 1519 c0 -5 5 -7 10 -4 6 3 10 8 10 11 0 2 -4 4 -10 4 -5 0 -10
-5 -10 -11z"/>
<path d="M3445 1516 c-30 -13 -31 -15 -34 -111 -1 -53 8 -198 14 -203 3 -3 16
5 29 17 20 19 24 32 24 77 -1 69 8 78 22 23 15 -60 28 -89 39 -89 16 0 41 31
41 51 0 10 5 19 10 19 11 0 11 -2 15 -39 2 -24 23 -43 40 -38 15 5 23 90 18
187 -2 47 -6 90 -8 97 -2 6 -20 11 -39 11 -37 0 -63 -25 -53 -52 3 -7 -1 -23
-8 -36 -12 -22 -13 -21 -25 28 -16 60 -40 76 -85 58z"/>
<path d="M5802 1518 c-6 -6 -12 -18 -12 -25 0 -15 -16 -17 -25 -3 -11 18 -30
10 -47 -20 -13 -23 -15 -36 -7 -59 11 -30 -2 -105 -20 -115 -14 -9 -32 70 -22
96 14 36 2 75 -30 103 -28 23 -31 23 -67 8 -59 -24 -62 -29 -63 -112 0 -42 -1
-89 -1 -104 -1 -45 33 -72 87 -69 57 2 85 17 85 43 0 26 24 20 28 -7 3 -24 51
-44 99 -42 39 1 57 25 67 85 6 33 4 43 -9 51 -14 7 -15 13 -6 30 14 26 8 91
-9 102 -6 4 -10 15 -8 26 4 22 -22 30 -40 12z m-205 -102 c-4 -9 -11 -16 -17
-16 -11 0 -14 33 -3 44 11 10 26 -11 20 -28z m203 9 c0 -8 -4 -15 -10 -15 -5
0 -10 7 -10 15 0 8 5 15 10 15 6 0 10 -7 10 -15z m-196 -111 c21 -20 20 -31
-3 -44 -29 -15 -31 -13 -31 25 0 38 10 44 34 19z m206 -25 c0 -17 -23 -20 -38
-6 -13 14 -13 18 -2 32 13 16 15 15 27 -1 7 -10 13 -21 13 -25z"/>
<path d="M3766 1498 c-3 -13 -6 -32 -6 -43 0 -11 -7 -33 -16 -50 -21 -38 -44
-149 -34 -166 11 -17 73 8 66 27 -7 18 29 37 54 29 11 -4 20 -14 20 -24 0 -23
19 -41 43 -41 18 0 19 5 13 57 -4 32 -11 62 -16 67 -6 6 -10 24 -10 41 0 29
-17 88 -33 113 -5 6 -23 12 -41 12 -26 0 -35 -5 -40 -22z m54 -129 c0 -28 -15
-23 -18 7 -1 14 2 23 8 19 6 -3 10 -15 10 -26z"/>
<path d="M3962 1512 c-15 -10 -24 -224 -11 -259 5 -13 17 -23 28 -23 17 0 21
9 27 49 3 28 13 52 20 55 17 7 35 -24 28 -50 -2 -10 4 -29 13 -41 14 -17 23
-19 41 -12 21 8 23 14 19 56 -3 27 -8 56 -12 66 -4 9 -4 29 1 45 21 73 3 114
-49 111 -18 -1 -45 1 -62 4 -16 4 -36 3 -43 -1z m93 -82 c0 -38 -39 -35 -43 3
-3 25 0 28 20 25 17 -2 23 -9 23 -28z"/>
<path d="M4473 1506 c-21 -10 -33 -33 -33 -67 0 -28 31 -32 57 -7 33 31 47 13
26 -35 -10 -20 -21 -37 -25 -37 -5 0 -13 -12 -18 -26 -6 -14 -14 -23 -19 -20
-13 9 -24 -65 -12 -77 13 -13 65 -19 109 -11 46 7 44 39 -3 48 -43 8 -44 24
-4 62 39 36 62 88 53 117 -4 12 -7 31 -8 42 -1 17 -8 20 -51 21 -27 0 -60 -4
-72 -10z"/>
<path d="M4709 1512 c-60 -5 -73 -29 -75 -138 -2 -92 -2 -95 28 -124 32 -32
62 -37 113 -19 29 11 31 15 33 69 3 69 -20 106 -74 116 -28 5 -35 10 -32 28 2
16 9 20 28 17 14 -1 28 -8 32 -15 5 -8 12 -6 24 6 15 14 15 20 4 33 -20 24
-41 31 -81 27z m35 -177 c7 -29 -14 -68 -30 -57 -20 13 -24 55 -7 74 19 21 29
17 37 -17z"/>
<path d="M5324 1479 c-24 -48 -24 -112 2 -157 1 -1 19 -5 40 -8 43 -5 60 -17
49 -34 -5 -8 -21 -10 -47 -6 -53 9 -65 -1 -37 -30 22 -24 68 -32 104 -18 30
12 43 56 41 147 -1 84 -2 90 -29 113 -40 34 -103 30 -123 -7z m89 -56 c3 -15
1 -36 -5 -46 -9 -18 -10 -18 -24 2 -17 23 -9 71 11 71 7 0 15 -12 18 -27z"/>
<path d="M3075 1490 c3 -5 8 -10 11 -10 2 0 4 5 4 10 0 6 -5 10 -11 10 -5 0
-7 -4 -4 -10z"/>
<path d="M5160 1474 c-55 -39 -57 -43 -22 -55 31 -11 32 -12 32 -74 0 -89 9
-125 31 -125 10 0 21 5 25 12 12 20 16 226 4 248 -14 25 -27 24 -70 -6z"/>
<path d="M300 1450 c0 -5 5 -10 11 -10 5 0 7 5 4 10 -3 6 -8 10 -11 10 -2 0
-4 -4 -4 -10z"/>
<path d="M9541 1300 c-33 -32 -34 -34 -35 -95 -1 -33 5 -46 41 -83 41 -41 46
-44 90 -40 51 3 58 7 104 51 24 23 29 36 29 75 -1 50 -8 65 -54 100 -22 17
-42 22 -86 22 -50 0 -61 -4 -89 -30z m109 0 c20 -12 9 -21 -18 -13 -12 3 -19
9 -16 14 7 11 15 11 34 -1z m-70 -25 c-9 -10 -11 -32 -7 -67 8 -61 22 -81 41
-55 14 19 36 23 36 7 0 -14 37 -13 46 2 4 6 0 16 -9 23 -9 7 -14 15 -11 18 4
3 6 24 6 47 -1 24 4 40 11 40 13 0 37 -45 37 -71 0 -28 -22 -79 -31 -73 -5 3
-9 -1 -9 -9 0 -18 -41 -29 -77 -21 -30 7 -70 43 -73 65 -6 39 2 70 22 89 26
24 36 27 18 5z"/>
<path d="M1816 1265 c-3 -8 -13 -15 -23 -15 -10 0 -30 -10 -45 -23 -22 -18
-27 -31 -28 -72 -3 -84 -1 -95 18 -102 9 -4 33 -17 52 -29 47 -31 110 -37 168
-16 26 9 52 21 57 25 6 4 18 13 29 21 14 9 19 26 20 68 1 58 -14 98 -43 113
-10 6 -33 18 -50 28 -28 16 -34 16 -60 3 -26 -14 -30 -14 -41 -1 -16 19 -46
19 -54 0z m80 -81 c1 -57 11 -74 46 -74 11 0 20 10 24 25 8 32 26 33 21 1 -7
-55 -65 -81 -138 -62 -52 13 -69 27 -69 56 0 27 48 80 73 80 10 0 20 7 23 15
12 30 19 14 20 -41z"/>
<path d="M2440 1263 c-14 -7 -37 -18 -51 -25 -93 -45 -109 -58 -109 -86 0 -15
6 -34 13 -42 16 -20 74 -60 86 -60 6 0 14 -6 18 -12 12 -19 79 -51 95 -45 7 2
21 0 30 -4 10 -6 19 -5 23 1 4 6 15 8 24 5 20 -6 41 13 38 35 -5 29 -19 40
-53 40 l-35 0 3 62 c3 62 4 63 41 81 37 17 47 39 25 54 -21 12 -121 10 -148
-4z m8 -130 c-4 -36 -19 -38 -51 -9 l-27 25 28 4 c15 2 33 5 40 6 9 0 12 -8
10 -26z"/>
<path d="M4201 1271 c-17 -11 -7 -41 13 -41 15 0 29 27 20 41 -7 11 -15 11
-33 0z"/>
<path d="M4861 1247 c-5 -12 -5 -23 0 -25 5 -2 9 -16 9 -30 l1 -27 19 24 c26
31 26 67 -1 74 -14 4 -22 -1 -28 -16z"/>
<path d="M3048 1233 c7 -3 16 -2 19 1 4 3 -2 6 -13 5 -11 0 -14 -3 -6 -6z"/>
<path d="M2855 1220 c-3 -5 -1 -10 4 -10 6 0 11 5 11 10 0 6 -2 10 -4 10 -3 0
-8 -4 -11 -10z"/>
<path d="M3130 1140 c0 -5 5 -10 10 -10 6 0 10 5 10 10 0 6 -4 10 -10 10 -5 0
-10 -4 -10 -10z"/>
<path d="M3852 1123 c-24 -10 -32 -18 -28 -29 3 -9 6 -18 6 -20 0 -2 9 -4 19
-4 29 0 32 -10 32 -107 0 -115 4 -131 35 -129 20 1 23 6 23 31 -2 53 8 172 15
183 4 7 2 12 -5 12 -7 0 -4 6 6 14 11 8 25 12 32 9 7 -3 13 -1 13 5 0 13 -29
36 -36 29 -3 -3 -17 -2 -30 3 -17 7 -24 6 -24 -3 -1 -8 -5 -6 -13 4 -10 14
-16 14 -45 2z"/>
<path d="M2670 1121 c0 -6 4 -13 10 -16 6 -3 7 1 4 9 -7 18 -14 21 -14 7z"/>
<path d="M2821 1114 c0 -11 3 -14 6 -6 3 7 2 16 -1 19 -3 4 -6 -2 -5 -13z"/>
<path d="M3438 1112 c-40 -24 -39 -76 3 -125 17 -21 39 -37 49 -37 21 0 34
-39 19 -56 -15 -18 -35 -7 -49 26 -8 20 -17 26 -31 23 -26 -7 -32 -18 -24 -51
6 -31 50 -62 87 -62 45 0 78 23 88 62 10 36 0 88 -18 88 -4 0 -25 16 -45 37
-26 25 -35 39 -27 47 7 7 16 3 30 -12 25 -27 29 -27 46 -4 19 24 17 39 -6 62
-25 25 -83 25 -122 2z"/>
<path d="M3677 1113 c-4 -3 -7 -14 -7 -23 0 -9 -7 -30 -15 -46 -8 -16 -17 -47
-20 -69 -3 -22 -9 -57 -14 -77 -7 -28 -5 -40 5 -49 19 -16 42 -5 46 23 2 19 9
23 41 24 32 1 40 -3 53 -27 18 -36 54 -40 54 -6 0 12 -7 49 -14 81 -8 33 -12
65 -9 72 2 6 0 15 -6 19 -6 3 -11 17 -11 30 0 13 -7 31 -16 39 -15 16 -75 22
-87 9z m51 -128 c1 -14 -2 -25 -7 -25 -10 0 -21 36 -13 44 11 12 18 5 20 -19z"/>
<path d="M4625 1104 c-35 -26 -4 -49 63 -47 18 1 15 -13 -18 -107 -38 -108
-38 -117 0 -118 27 -1 31 3 40 41 6 23 26 80 45 126 28 66 33 87 23 98 -6 8
-17 12 -24 9 -6 -2 -15 -2 -18 1 -11 12 -94 9 -111 -3z"/>
<path d="M4973 1094 c-28 -28 -31 -64 -4 -64 10 0 24 7 31 15 18 22 43 14 45
-13 1 -17 -5 -26 -22 -33 -25 -9 -32 -39 -10 -39 18 0 44 -31 42 -50 -1 -8 -3
-21 -3 -27 -1 -7 -13 -13 -26 -13 -19 0 -23 5 -21 24 3 25 -19 43 -30 25 -4
-5 -10 -7 -15 -4 -4 3 -13 -2 -20 -10 -7 -9 -8 -15 -2 -15 5 0 13 -11 16 -24
6 -26 49 -46 96 -46 54 0 86 71 61 135 -5 12 -3 33 5 53 11 28 11 36 -4 62
-28 49 -101 62 -139 24z"/>
<path d="M5508 1109 c-16 -9 -18 -27 -18 -144 0 -127 1 -134 21 -140 29 -10
37 2 41 60 2 28 8 50 13 50 54 3 84 17 94 47 17 48 13 73 -14 101 -25 24 -85
42 -85 25 0 -11 -28 -10 -32 1 -2 6 -10 6 -20 0z m83 -92 c-7 -19 -32 -32 -31
-17 2 26 14 48 25 43 10 -3 11 -11 6 -26z"/>
<path d="M5712 1112 c-15 -10 -23 -176 -12 -242 4 -29 9 -35 30 -35 22 0 25 5
28 45 5 65 18 70 25 9 9 -71 38 -92 58 -41 6 15 18 41 25 57 l14 30 -3 -27
c-2 -16 0 -28 5 -28 5 0 7 -8 3 -19 -3 -10 1 -24 10 -31 13 -11 19 -10 34 4
10 9 19 27 18 39 0 12 1 65 3 118 2 53 0 101 -4 107 -4 7 -27 12 -51 12 l-44
0 -12 -55 c-7 -31 -15 -58 -19 -60 -3 -2 -12 23 -19 56 -8 32 -19 59 -25 59
-6 0 -20 3 -31 5 -11 3 -26 1 -33 -3z"/>
<path d="M2703 1096 c-16 -19 -4 -29 13 -11 8 7 14 16 14 19 0 10 -15 6 -27
-8z"/>
<path d="M5178 1098 c-27 -9 -35 -31 -29 -76 1 -8 -6 -20 -16 -27 -17 -13 -17
-14 1 -33 10 -12 15 -26 11 -32 -11 -17 14 -78 41 -99 19 -15 31 -17 53 -11
72 20 80 35 82 145 1 59 0 70 -14 111 -11 32 -74 43 -129 22z m71 -145 c1 -65
-1 -73 -18 -73 -16 0 -18 9 -20 81 -1 54 2 86 11 96 11 14 13 13 19 -8 4 -13
7 -57 8 -96z"/>
<path d="M3110 1091 c0 -5 7 -11 14 -14 10 -4 13 -1 9 9 -6 15 -23 19 -23 5z"/>
<path d="M3055 1070 c3 -5 8 -10 11 -10 2 0 4 5 4 10 0 6 -5 10 -11 10 -5 0
-7 -4 -4 -10z"/>
<path d="M3051 1034 c0 -11 3 -14 6 -6 3 7 2 16 -1 19 -3 4 -6 -2 -5 -13z"/>
<path d="M4328 1042 c-9 -2 -24 -19 -33 -37 -13 -28 -14 -39 -4 -57 14 -26 41
-48 51 -42 4 2 9 0 13 -6 10 -16 20 -12 54 17 66 58 11 144 -81 125z"/>
<path d="M4852 1042 c-16 -5 -15 -37 1 -51 14 -11 37 3 37 22 0 14 -24 34 -38
29z"/>
<path d="M5 1001 c-3 -5 -1 -12 5 -16 5 -3 10 1 10 9 0 18 -6 21 -15 7z"/>
<path d="M236 987 c3 -10 9 -15 12 -12 3 3 0 11 -7 18 -10 9 -11 8 -5 -6z"/>
<path d="M65 960 c3 -5 8 -10 11 -10 2 0 4 5 4 10 0 6 -5 10 -11 10 -5 0 -7
-4 -4 -10z"/>
<path d="M2278 953 c-9 -11 -6 -24 12 -56 13 -23 28 -45 34 -49 8 -5 7 -13 -2
-25 -6 -10 -15 -25 -19 -33 -4 -8 -15 -23 -26 -32 -23 -21 -15 -53 16 -62 12
-3 43 -6 70 -6 26 0 47 -4 47 -9 0 -6 13 -6 34 0 19 5 47 8 62 7 16 -1 44 -1
62 0 28 2 32 5 32 31 0 29 0 29 -67 33 -38 2 -74 0 -80 -5 -8 -6 -13 -5 -13 2
0 6 -9 11 -20 11 -30 0 -24 17 10 29 36 12 38 29 9 66 -29 36 -15 44 69 40 92
-5 128 19 85 58 -24 21 -297 21 -315 0z"/>
<path d="M3086 935 c8 -37 14 -45 14 -19 0 10 -5 26 -10 34 -8 11 -9 7 -4 -15z"/>
<path d="M2660 941 c0 -6 4 -13 10 -16 6 -3 7 1 4 9 -7 18 -14 21 -14 7z"/>
<path d="M1431 924 c0 -11 3 -14 6 -6 3 7 2 16 -1 19 -3 4 -6 -2 -5 -13z"/>
<path d="M1465 919 c-4 -6 -5 -12 -2 -15 2 -3 7 2 10 11 7 17 1 20 -8 4z"/>
<path d="M3061 914 c0 -11 3 -14 6 -6 3 7 2 16 -1 19 -3 4 -6 -2 -5 -13z"/>
<path d="M3000 894 c0 -8 5 -12 10 -9 6 3 10 10 10 16 0 5 -4 9 -10 9 -5 0
-10 -7 -10 -16z"/>
<path d="M1111 874 c0 -11 3 -14 6 -6 3 7 2 16 -1 19 -3 4 -6 -2 -5 -13z"/>
<path d="M4841 876 c-15 -18 -4 -45 17 -42 22 3 30 56 9 56 -8 0 -20 -6 -26
-14z"/>
<path d="M4040 858 c0 -12 3 -18 7 -15 3 4 12 2 18 -3 9 -8 14 -4 17 15 4 21
1 25 -18 25 -18 0 -24 -6 -24 -22z"/>
<path d="M3000 821 c0 -5 5 -13 10 -16 6 -3 10 -2 10 4 0 5 -4 13 -10 16 -5 3
-10 2 -10 -4z"/>
<path d="M3052 784 c9 -3 19 -13 22 -22 3 -12 4 -12 3 3 -1 12 -10 21 -22 22
-15 1 -15 0 -3 -3z"/>
<path d="M1090 775 c0 -5 5 -17 10 -25 5 -8 10 -10 10 -5 0 6 -5 17 -10 25 -5
8 -10 11 -10 5z"/>
<path d="M1236 663 c-6 -14 -5 -15 5 -6 7 7 10 15 7 18 -3 3 -9 -2 -12 -12z"/>
<path d="M2670 670 c0 -5 5 -10 11 -10 5 0 7 5 4 10 -3 6 -8 10 -11 10 -2 0
-4 -4 -4 -10z"/>
<path d="M2970 659 c0 -5 5 -7 10 -4 6 3 10 8 10 11 0 2 -4 4 -10 4 -5 0 -10
-5 -10 -11z"/>
<path d="M3745 632 c-33 -6 -35 -15 -21 -68 7 -29 12 -63 11 -77 -3 -29 14
-50 32 -39 6 4 13 20 15 36 1 16 10 32 18 36 8 4 25 12 37 18 33 17 33 17 33
-37 0 -54 10 -70 30 -46 17 21 27 19 33 -6 5 -18 11 -20 34 -14 40 10 53 23
53 55 0 16 5 30 11 32 15 5 1 34 -25 51 -29 20 -72 11 -82 -16 -6 -18 -8 -14
-11 21 -3 34 -8 42 -24 42 -17 0 -24 -16 -20 -42 0 -5 -3 -8 -9 -8 -5 0 -10 8
-10 19 0 35 -46 54 -105 43z m255 -142 c0 -5 -7 -10 -15 -10 -8 0 -15 5 -15
10 0 6 7 10 15 10 8 0 15 -4 15 -10z"/>
<path d="M5615 598 c-6 -31 -8 -65 -7 -115 2 -36 6 -44 33 -57 33 -17 60 -10
77 19 7 13 10 13 27 -3 26 -23 60 -20 89 7 l23 21 11 -26 c17 -36 36 -25 40
24 2 29 8 42 18 42 13 0 19 -16 16 -52 -2 -22 24 -42 44 -34 10 4 14 13 11 26
-3 11 -1 20 4 20 5 0 9 -6 9 -14 0 -24 20 -29 35 -10 12 18 14 17 40 -8 26
-26 29 -27 55 -13 35 18 45 32 32 48 -10 13 -2 49 11 48 4 0 22 -14 39 -31
l31 -31 -27 7 c-30 7 -34 -6 -10 -30 17 -17 27 -19 62 -10 24 7 31 47 11 60
-7 4 -9 21 -6 41 5 29 3 35 -19 43 -35 14 -41 13 -64 -12 -21 -23 -22 -23 -36
-4 -18 25 -54 28 -77 8 -16 -14 -19 -14 -27 -2 -6 8 -10 25 -10 38 0 26 -25
30 -39 5 -8 -15 -12 -16 -22 -5 -19 17 -46 15 -54 -5 -6 -17 -7 -17 -19 0 -17
22 -31 22 -54 -3 -14 -15 -28 -19 -61 -15 -37 3 -43 1 -53 -21 -14 -29 -25
-31 -33 -4 -3 11 -15 20 -25 20 -11 0 -27 11 -36 25 -20 31 -32 32 -39 3z m60
-68 c8 -13 -4 -50 -16 -50 -5 0 -9 14 -9 30 0 30 13 40 25 20z m335 -14 c0 -8
-4 -18 -10 -21 -5 -3 -10 3 -10 14 0 12 5 21 10 21 6 0 10 -6 10 -14z m60 -12
c0 -8 -4 -12 -10 -9 -5 3 -10 10 -10 16 0 5 5 9 10 9 6 0 10 -7 10 -16z m-210
2 c0 -3 -4 -8 -10 -11 -5 -3 -10 -1 -10 4 0 6 5 11 10 11 6 0 10 -2 10 -4z"/>
<path d="M6624 595 c-9 -13 -14 -32 -10 -40 8 -21 -10 -19 -26 4 -11 16 -20
18 -48 12 -23 -4 -36 -13 -38 -25 -3 -15 1 -18 17 -13 29 7 26 -7 -5 -32 -19
-15 -25 -27 -22 -48 3 -27 5 -28 64 -31 52 -2 64 0 87 22 l26 24 15 -23 c18
-27 69 -37 89 -17 11 11 19 11 35 3 36 -19 71 -13 84 14 14 30 28 33 28 5 0
-11 6 -20 13 -20 22 0 37 16 36 36 -4 35 1 54 12 54 8 0 10 -14 6 -45 -6 -40
-4 -45 12 -45 12 0 23 11 29 28 l10 27 10 -27 c6 -14 21 -29 33 -33 26 -9 69
12 69 34 1 12 3 11 12 -4 31 -55 48 -38 52 51 3 69 -8 104 -31 104 -14 0 -17
-22 -14 -82 2 -22 -2 -38 -8 -38 -6 0 -11 11 -11 25 0 28 -32 65 -56 65 -21 0
-38 -19 -52 -55 -9 -26 -11 -27 -11 -7 -1 32 -22 60 -41 55 -10 -3 -21 6 -30
22 -12 22 -16 24 -28 12 -8 -8 -14 -35 -14 -61 -1 -43 -16 -77 -19 -42 -1 9
-3 21 -4 26 -1 6 -3 15 -4 20 0 6 -12 15 -25 20 -29 11 -75 -7 -77 -30 -1 -8
-3 -22 -4 -30 -1 -8 -3 -26 -4 -40 -2 -24 -2 -24 -16 -6 -12 16 -17 17 -30 6
-13 -11 -15 -9 -15 13 0 17 7 28 20 32 12 4 20 15 20 30 0 32 -45 41 -65 12
-18 -26 -37 -12 -37 27 0 37 -14 41 -34 11z m43 -97 c-3 -8 -6 -5 -6 6 -1 11
2 17 5 13 3 -3 4 -12 1 -19z m184 9 c-6 -8 -8 -17 -4 -20 3 -4 1 -7 -5 -7 -18
0 -26 22 -11 31 21 13 33 11 20 -4z m259 -4 c0 -10 -5 -25 -10 -33 -7 -11 -10
-7 -10 18 0 17 5 32 10 32 6 0 10 -8 10 -17z m-503 -25 c-3 -7 -5 -2 -5 12 0
14 2 19 5 13 2 -7 2 -19 0 -25z"/>
<path d="M7977 613 c-4 -3 -7 -15 -7 -25 0 -14 -5 -18 -19 -13 -21 6 -37 -9
-46 -48 -10 -37 -23 -34 -31 7 -9 50 -34 56 -35 8 -1 -20 -2 -50 -3 -65 -2
-30 19 -56 34 -41 4 5 10 20 12 34 l4 25 13 -30 c14 -34 27 -45 57 -45 27 0
41 17 45 55 2 17 7 35 12 42 4 6 3 14 -3 18 -5 3 -10 24 -10 46 0 37 -8 48
-23 32z m-15 -137 c-9 -18 -11 -16 -11 19 0 33 1 37 10 21 8 -12 8 -25 1 -40z"/>
<path d="M7845 600 c3 -5 10 -10 16 -10 5 0 9 5 9 10 0 6 -7 10 -16 10 -8 0
-12 -4 -9 -10z"/>
<path d="M8755 600 c3 -5 10 -10 16 -10 5 0 9 5 9 10 0 6 -7 10 -16 10 -8 0
-12 -4 -9 -10z"/>
<path d="M9403 588 c-14 -19 -23 -45 -16 -52 3 -3 7 -25 9 -48 5 -54 11 -71
24 -63 5 3 10 30 10 59 0 28 5 57 12 64 10 10 8 17 -8 33 -17 16 -23 17 -31 7z"/>
<path d="M4056 573 c-5 -11 -1 -22 10 -30 16 -11 15 -14 -6 -31 -18 -14 -22
-25 -16 -45 6 -25 10 -27 55 -26 l49 2 4 59 c2 45 -1 63 -13 74 -22 20 -75 18
-83 -3z"/>
<path d="M4204 583 c-39 -7 -36 -57 5 -91 14 -12 13 -13 -6 -9 -17 4 -23 1
-23 -12 0 -39 41 -53 72 -24 16 14 22 15 36 5 31 -22 44 -25 69 -16 23 8 25
15 27 69 1 55 -1 60 -26 75 -36 19 -59 6 -72 -41 -12 -44 -13 -44 -31 -29 -11
9 -12 17 -4 32 10 19 -3 50 -20 47 -3 -1 -16 -4 -27 -6z"/>
<path d="M4606 574 c-11 -8 -16 -28 -16 -68 0 -47 3 -56 18 -56 12 0 18 9 19
32 3 46 23 61 23 18 0 -51 14 -68 41 -52 17 11 24 11 44 -2 40 -26 71 -20 89
16 15 30 15 34 -6 77 -21 41 -26 46 -53 43 -16 -2 -36 -11 -43 -20 -12 -16
-15 -15 -32 5 -19 24 -57 27 -84 7z m169 -84 c3 -5 1 -10 -4 -10 -6 0 -11 5
-11 10 0 6 2 10 4 10 3 0 8 -4 11 -10z"/>
<path d="M5072 578 c-19 -19 -14 -38 9 -38 21 0 21 -1 -5 -25 -20 -18 -26 -33
-24 -53 3 -25 6 -27 48 -27 39 0 45 3 48 23 4 27 18 29 25 2 3 -11 12 -20 21
-20 16 0 21 21 17 68 -2 25 11 29 29 7 9 -11 9 -15 1 -15 -7 0 -9 -10 -5 -27
9 -37 17 -45 38 -37 13 5 16 17 12 66 -2 32 -6 62 -10 65 -3 4 -26 8 -51 9
-36 2 -45 -1 -50 -17 -8 -25 -22 -24 -30 1 -3 11 -12 20 -20 20 -7 0 -19 2
-27 5 -7 3 -19 0 -26 -7z m103 -66 c0 -20 -18 -18 -21 1 -1 10 3 16 9 14 7 -2
12 -9 12 -15z"/>
<path d="M4964 555 c-9 -14 -25 -25 -35 -25 -25 0 -24 -20 1 -63 25 -43 52
-51 80 -25 25 23 17 42 -16 34 -21 -6 -23 -3 -22 28 1 33 3 35 30 29 25 -5 29
-3 26 13 -7 40 -40 45 -64 9z"/>
<path d="M5328 569 c-22 -12 -22 -25 -4 -61 9 -16 11 -30 5 -33 -17 -11 -9
-43 11 -48 19 -5 41 3 78 26 10 7 8 16 -9 43 -17 29 -19 37 -8 50 10 13 10 17
-2 25 -18 12 -50 11 -71 -2z"/>
<path d="M8365 556 c-16 -23 -20 -93 -6 -115 12 -19 52 -22 74 -6 21 15 26 97
8 119 -20 24 -60 26 -76 2z m45 -27 c0 -5 -4 -9 -10 -9 -5 0 -10 7 -10 16 0 8
5 12 10 9 6 -3 10 -10 10 -16z"/>
<path d="M7422 558 c-18 -24 -25 -79 -12 -104 15 -27 64 -41 85 -24 8 7 15 23
15 35 0 13 3 31 7 41 5 13 9 6 17 -27 16 -63 43 -66 44 -3 1 27 8 54 17 64 28
31 -23 44 -56 14 -16 -15 -20 -15 -41 0 -27 19 -62 21 -76 4z m51 -85 c-5 -14
-8 -11 -14 12 -5 15 -5 33 -2 38 9 15 23 -30 16 -50z"/>
<path d="M7714 538 c4 -18 9 -48 13 -66 7 -41 35 -59 57 -36 9 8 16 24 16 33
0 10 7 35 15 54 16 39 8 53 -25 42 -12 -4 -20 -15 -20 -28 -1 -21 -2 -21 -21
6 -28 37 -43 35 -35 -5z"/>
<path d="M8036 554 c-3 -9 -3 -20 0 -26 4 -6 1 -14 -6 -18 -8 -5 -10 -19 -6
-42 11 -60 96 -71 96 -13 0 14 5 25 10 25 6 0 10 -6 10 -14 0 -18 38 -46 62
-46 30 0 46 27 46 77 0 52 -16 72 -59 73 -26 0 -51 -19 -48 -36 3 -20 -2 -34
-12 -34 -6 0 -9 6 -6 14 3 7 -1 23 -9 35 -18 25 -69 29 -78 5z m164 -24 c0 -5
-5 -10 -11 -10 -5 0 -7 5 -4 10 3 6 8 10 11 10 2 0 4 -4 4 -10z m5 -41 c4 -11
4 -23 0 -27 -7 -7 -25 17 -25 36 0 20 18 14 25 -9z"/>
<path d="M8484 543 c-30 -45 -5 -123 38 -123 11 0 22 -9 25 -20 3 -11 12 -20
19 -20 8 0 15 9 15 20 2 32 4 38 11 45 4 4 3 16 -3 27 -6 10 -7 27 -4 38 19
58 -66 85 -101 33z m58 -48 c-2 -19 -8 -35 -13 -35 -10 0 -12 31 -3 54 11 28
20 17 16 -19z"/>
<path d="M8687 555 c-9 -7 -17 -21 -17 -31 0 -15 -4 -14 -18 9 -9 15 -20 27
-24 27 -6 0 -13 -38 -21 -110 -3 -19 42 -40 73 -33 22 4 27 12 36 57 11 64 -2
101 -29 81z m-7 -81 c0 -31 -23 -28 -28 4 -2 15 2 22 12 22 11 0 16 -9 16 -26z"/>
<path d="M8754 552 c-12 -19 -12 -107 -1 -119 15 -14 28 15 30 65 2 57 -12 82
-29 54z"/>
<path d="M8814 558 c-3 -5 -5 -23 -4 -41 1 -17 1 -36 0 -42 -4 -22 2 -91 9
-98 5 -4 16 3 25 17 9 15 23 26 31 26 8 0 19 9 25 19 12 23 13 100 2 118 -9
14 -80 15 -88 1z m60 -60 c7 -34 3 -44 -13 -33 -13 7 -15 65 -2 65 5 0 11 -14
15 -32z"/>
<path d="M8961 558 c-17 -6 -19 -13 -14 -65 8 -88 22 -92 35 -10 2 10 8 18 13
17 9 0 11 -8 14 -53 1 -12 7 -17 19 -15 18 3 19 8 21 71 1 24 5 36 12 32 6 -4
9 -21 8 -39 -3 -51 0 -66 16 -66 17 0 38 34 27 45 -4 3 -7 25 -7 48 l0 42 -62
0 c-34 1 -71 -2 -82 -7z"/>
<path d="M9158 563 c-24 -6 -29 -78 -10 -124 9 -24 14 -26 44 -20 24 5 33 12
33 26 0 14 -7 20 -23 19 -12 0 -21 4 -19 10 2 6 12 11 23 11 20 0 31 40 17 61
-10 14 -43 23 -65 17z"/>
<path d="M9292 563 c-29 -6 -42 -39 -35 -92 6 -45 6 -45 34 -31 14 8 17 15 11
26 -10 19 -4 64 9 64 9 0 11 -15 14 -70 0 -15 7 -25 15 -25 23 0 26 97 5 119
-9 9 -19 15 -23 15 -4 -1 -17 -4 -30 -6z"/>
<path d="M4435 460 c-4 -6 -2 -17 4 -23 15 -15 25 -2 13 19 -7 12 -11 13 -17
4z"/>
<path d="M5450 440 c0 -13 5 -20 13 -17 6 2 12 10 12 17 0 7 -6 15 -12 18 -8
2 -13 -5 -13 -18z"/>
<path d="M6330 441 c0 -5 7 -14 15 -21 13 -10 15 -9 15 9 0 12 -6 21 -15 21
-8 0 -15 -4 -15 -9z"/>
<path d="M7250 441 c0 -5 7 -14 15 -21 13 -10 15 -9 15 9 0 12 -6 21 -15 21
-8 0 -15 -4 -15 -9z"/>
<path d="M1310 429 c0 -5 5 -7 10 -4 6 3 10 8 10 11 0 2 -4 4 -10 4 -5 0 -10
-5 -10 -11z"/>
<path d="M9485 430 c4 -6 11 -8 16 -5 14 9 11 15 -7 15 -8 0 -12 -5 -9 -10z"/>
<path d="M6600 56 c0 -2 7 -6 15 -10 8 -3 15 -1 15 4 0 6 -7 10 -15 10 -8 0
-15 -2 -15 -4z"/>
<path d="M8916 15 c8 -19 24 -19 24 0 0 8 -7 15 -15 15 -9 0 -12 -6 -9 -15z"/>
</g>
</svg>
